<svg width="27" height="24" viewBox="0 0 27 24" fill="none" xmlns="http://www.w3.org/2000/svg">
<path d="M3.99023 13.3672L3.54004 13.8193L2.35449 12.6338C2.77308 18.4232 7.60526 23.0098 13.5 23.0098C18.7132 23.0098 23.1892 19.4715 24.3867 14.4053L25.0068 14.5518C23.7413 19.9066 19.0106 23.6465 13.5 23.6465C7.2284 23.6465 2.09547 18.7334 1.71387 12.5557L0.450195 13.8193L0 13.3672L1.99512 11.373L3.99023 13.3672ZM13.5 17.1465L13.4863 17.1328H13.5137L13.5 17.1465ZM13.5 0C19.7726 0 24.9047 4.91378 25.2861 11.0908L26.5488 9.82812L27 10.2783L25.0049 12.2734L23.0088 10.2793L23.46 9.8291L24.6445 11.0127C24.2268 5.22331 19.3947 0.637695 13.5 0.637695C8.28846 0.637695 3.81357 4.17578 2.61621 9.24219L1.99512 9.09473C3.2607 3.73995 7.99208 1.00879e-07 13.5 0Z" fill="#F49B31"/>
<path fill-rule="evenodd" clip-rule="evenodd" d="M9.24407 10.0009L8.99841 10.9773H7.73786C7.49916 10.9773 7.30566 11.1696 7.30566 11.4068C7.30566 11.644 7.49916 11.8363 7.73786 11.8363H19.2629C19.5016 11.8363 19.6951 11.644 19.6951 11.4068C19.6951 11.1696 19.5016 10.9773 19.2629 10.9773H18.0024L17.7567 10.0009C17.4423 8.75104 17.2851 8.12611 16.8161 7.76227C16.3472 7.39844 15.6989 7.39844 14.4024 7.39844H12.5984C11.3019 7.39844 10.6536 7.39844 10.1847 7.76227C9.71574 8.12611 9.55851 8.75104 9.24407 10.0009ZM10.331 17.133C11.2664 17.133 12.053 16.5003 12.2811 15.6421L12.9206 15.3244C13.2856 15.143 13.7152 15.143 14.0802 15.3244L14.7196 15.6421C14.9478 16.5003 15.7344 17.133 16.6698 17.133C17.7837 17.133 18.6867 16.2357 18.6867 15.1288C18.6867 14.022 17.7837 13.1247 16.6698 13.1247C15.7132 13.1247 14.9121 13.7865 14.7049 14.6745L14.4668 14.5562C13.8584 14.2539 13.1424 14.2539 12.534 14.5562L12.2958 14.6745C12.0887 13.7865 11.2876 13.1247 10.331 13.1247C9.2171 13.1247 8.31411 14.022 8.31411 15.1288C8.31411 16.2357 9.2171 17.133 10.331 17.133Z" fill="#F49B31"/>
</svg>
