<svg width="24" height="24" viewBox="0 0 24 24" fill="none" xmlns="http://www.w3.org/2000/svg">
<g clip-path="url(#clip0_2758_8541)">
<path d="M23.4484 0.551515C22.7131 -0.183815 21.5163 -0.183862 20.7808 0.551515L15.9591 5.37327C14.0036 4.36677 11.5394 4.67999 9.903 6.31649L6.36097 9.85847C4.72456 11.4949 4.41125 13.9592 5.41775 15.9145L0.551603 20.7808C-0.183868 21.5163 -0.183868 22.713 0.551603 23.4484C0.919385 23.8161 1.40239 23.9999 1.88539 23.9999C2.36839 23.9999 2.85148 23.8161 3.21917 23.4484L8.0842 18.5834C8.81142 18.959 9.62282 19.1592 10.4661 19.1592C11.8559 19.1592 13.1611 18.6193 14.1414 17.6389C14.387 17.3934 14.387 16.9953 14.1414 16.7498L12.363 14.9714C12.2452 14.8535 12.0852 14.7872 11.9184 14.7872C11.7517 14.7872 11.5917 14.8535 11.4738 14.9714C11.3985 15.0467 11.3156 15.1113 11.2277 15.1671C11.4523 14.5076 11.3023 13.7477 10.7773 13.2226C10.2523 12.6977 9.49232 12.5477 8.83284 12.7723C8.88853 12.6844 8.95331 12.6015 9.02859 12.5262L12.5706 8.9842C12.6356 8.91914 12.7057 8.86223 12.7792 8.8125C12.5445 9.47667 12.6923 10.247 13.2226 10.7774C13.5904 11.1451 14.0734 11.3289 14.5564 11.3289C14.7703 11.3289 14.9841 11.2927 15.188 11.2206C15.1377 11.2947 15.0804 11.3647 15.0158 11.4293C14.8979 11.5472 14.8316 11.7072 14.8316 11.874C14.8316 12.0407 14.8979 12.2007 15.0158 12.3186L16.7942 14.097C17.0398 14.3425 17.4379 14.3424 17.6834 14.097C19.3198 12.4606 19.6331 9.99628 18.6266 8.04089L23.4484 3.21908C24.1839 2.48371 24.1839 1.28703 23.4484 0.551515ZM11.8663 16.2529L12.7725 17.1592C12.1064 17.6414 11.3068 17.9017 10.4662 17.9017C9.96754 17.9017 9.48337 17.81 9.03295 17.6348L10.0541 16.6136C10.1893 16.6344 10.3269 16.6453 10.4663 16.6453C10.9684 16.6454 11.4493 16.5087 11.8663 16.2529ZM8.99896 14.1118C9.1215 13.9893 9.28251 13.928 9.44357 13.928C9.60459 13.928 9.76561 13.9893 9.88818 14.1118C10.1333 14.357 10.1333 14.7558 9.88818 15.001L2.33 22.5592C2.08489 22.8043 1.68598 22.8043 1.44082 22.5592C1.19567 22.314 1.19567 21.9152 1.44082 21.67L8.99896 14.1118ZM11.6814 8.09494L8.13941 11.6369C7.63335 12.143 7.35459 12.8167 7.35459 13.5339C7.35459 13.6733 7.36551 13.8108 7.38632 13.946L6.36646 14.9658C5.8175 13.5534 6.11169 11.8862 7.2501 10.7477L10.7921 7.20571C11.5603 6.43757 12.5693 6.05352 13.5783 6.05352C14.0648 6.05352 14.551 6.1432 15.0104 6.32193L13.9897 7.34273C13.173 7.21673 12.3091 7.46718 11.6814 8.09494ZM17.2034 12.7278L16.2974 11.8218C16.5531 11.4048 16.6898 10.924 16.6898 10.4217C16.6898 10.2823 16.6787 10.1447 16.658 10.0095L17.6774 8.9902C18.1534 10.2148 17.9962 11.6307 17.2034 12.7278ZM22.5593 2.32991L15.001 9.88814C14.7559 10.1333 14.357 10.1333 14.1119 9.88814C13.8667 9.64299 13.8667 9.24403 14.1119 8.99887L21.67 1.44078C21.9152 1.19563 22.3141 1.19558 22.5593 1.44078C22.8044 1.68594 22.8044 2.0848 22.5593 2.32991Z" fill="#FEF5EA"/>
<path d="M19.7142 18.7801L17.669 16.7349C17.4235 16.4894 17.0254 16.4894 16.7799 16.7349C16.5343 16.9805 16.5343 17.3786 16.7799 17.6241L18.825 19.6693C18.9478 19.7921 19.1087 19.8534 19.2696 19.8534C19.4305 19.8534 19.5915 19.792 19.7143 19.6693C19.9597 19.4238 19.9598 19.0256 19.7142 18.7801Z" fill="#FEF5EA"/>
<path d="M22.3482 15.3669L19.2304 14.9167C18.8868 14.8671 18.5678 15.1053 18.5182 15.4491C18.4687 15.7928 18.707 16.1117 19.0507 16.1613L22.1685 16.6115C22.199 16.6159 22.2292 16.6181 22.2591 16.6181C22.5666 16.6181 22.8354 16.3923 22.8806 16.0791C22.9302 15.7353 22.6919 15.4165 22.3482 15.3669Z" fill="#FEF5EA"/>
<path d="M16.6564 22.1235L16.2062 19.0057C16.1566 18.6621 15.8375 18.4238 15.4941 18.4733C15.1504 18.523 14.912 18.8417 14.9616 19.1855L15.4118 22.3032C15.457 22.6164 15.7259 22.8422 16.0333 22.8422C16.0632 22.8422 16.0935 22.84 16.124 22.8357C16.4677 22.786 16.7061 22.4672 16.6564 22.1235Z" fill="#FEF5EA"/>
</g>
<defs>
<clipPath id="clip0_2758_8541">
<rect width="24" height="24" fill="white"/>
</clipPath>
</defs>
</svg>
