<svg width="60" height="53" viewBox="0 0 60 53" fill="none" xmlns="http://www.w3.org/2000/svg">
<path d="M29.89 14.0124C33.7594 14.0124 36.8961 10.8756 36.8961 7.00618C36.8961 3.13677 33.7594 0 29.89 0C26.0206 0 22.8838 3.13677 22.8838 7.00618C22.8838 10.8756 26.0206 14.0124 29.89 14.0124Z" fill="#F49B31"/>
<path d="M54.415 26.2807L47.8852 24.9186C45.6605 24.4526 43.4642 25.4722 42.3029 27.285C41.1752 26.7057 39.9624 26.2061 38.6724 25.7916V21.9086C38.675 18.9708 36.27 16.5684 33.3425 16.5684H26.6659C23.7229 16.5684 21.3282 18.9708 21.3282 21.9086V25.8121C20.0511 26.2189 18.8512 26.7184 17.7157 27.3004C16.5545 25.4799 14.3555 24.4526 12.1282 24.9186L5.59316 26.2807C2.72475 26.8807 0.863093 29.7259 1.46304 32.6046L3.10327 40.4399C3.69808 43.3108 6.54584 45.1725 9.41687 44.5725L11.4844 44.1399C12.5195 45.6694 13.9512 47.0727 15.7844 48.2726C19.6029 50.7754 24.6471 52.1555 30.0002 52.1555C38.1908 52.1555 45.246 48.8623 48.4954 44.1322L50.5965 44.5725C53.4649 45.1698 56.3127 43.3108 56.9075 40.4399L58.5502 32.6046C59.1475 29.7259 57.2859 26.8807 54.415 26.2807ZM29.9976 49.4802C25.162 49.4802 20.6302 48.2623 17.2494 46.035C16.0907 45.278 15.1303 44.4361 14.3605 43.5349L15.944 43.2027C18.8176 42.6053 20.6792 39.7601 20.0793 36.8866L18.609 29.8417C19.4664 29.3808 20.3677 28.9765 21.3255 28.6316V29.9164C21.3255 32.8492 23.7253 35.2516 26.6631 35.2516H33.3397C36.27 35.2516 38.6698 32.8467 38.6698 29.9164V28.5646C39.6456 28.9122 40.5622 29.3114 41.412 29.7645L39.9211 36.8892C39.3263 39.7627 41.1853 42.608 44.0588 43.2053L45.6578 43.54C42.6762 47.0702 36.7772 49.4802 29.9976 49.4802Z" fill="#F49B31"/>
<path d="M52.9935 23.2233C56.8629 23.2233 59.9997 20.0865 59.9997 16.2171C59.9997 12.3477 56.8629 9.21094 52.9935 9.21094C49.1241 9.21094 45.9873 12.3477 45.9873 16.2171C45.9873 20.0865 49.1241 23.2233 52.9935 23.2233Z" fill="#F49B31"/>
<path d="M8.44369 23.0759C12.2339 22.2828 14.6543 18.5673 13.8715 14.7797C13.0732 10.9946 9.36544 8.56396 5.57265 9.35704C1.78762 10.1475 -0.643071 13.8604 0.150009 17.6481C0.940582 21.4383 4.65352 23.8664 8.44369 23.0759Z" fill="#F49B31"/>
</svg>
