<svg width="27" height="27" viewBox="0 0 27 27" fill="none" xmlns="http://www.w3.org/2000/svg">
<g clip-path="url(#clip0_2754_8334)">
<path d="M21.9375 17.7188H20.25V21.9375H21.9375V17.7188Z" fill="#F49B31"/>
<path d="M18.5625 13.5H16.875V21.9375H18.5625V13.5Z" fill="#F49B31"/>
<path d="M9.28125 21.9375C8.16277 21.9362 7.09048 21.4913 6.2996 20.7004C5.50871 19.9095 5.06382 18.8372 5.0625 17.7188H6.75C6.75 18.2194 6.89846 18.7088 7.17659 19.125C7.45473 19.5413 7.85006 19.8657 8.31258 20.0573C8.77511 20.2489 9.28406 20.299 9.77507 20.2014C10.2661 20.1037 10.7171 19.8626 11.0711 19.5086C11.4251 19.1546 11.6662 18.7036 11.7639 18.2126C11.8615 17.7216 11.8114 17.2126 11.6198 16.7501C11.4282 16.2876 11.1038 15.8922 10.6875 15.6141C10.2713 15.336 9.78188 15.1875 9.28125 15.1875V13.5C10.4001 13.5 11.4732 13.9445 12.2644 14.7356C13.0555 15.5268 13.5 16.5999 13.5 17.7188C13.5 18.8376 13.0555 19.9107 12.2644 20.7019C11.4732 21.493 10.4001 21.9375 9.28125 21.9375Z" fill="#F49B31"/>
<path d="M23.625 1.6875H3.375C2.92758 1.68795 2.49862 1.86588 2.18225 2.18225C1.86588 2.49862 1.68795 2.92758 1.6875 3.375V23.625C1.68801 24.0724 1.86597 24.5013 2.18232 24.8177C2.49868 25.134 2.9276 25.312 3.375 25.3125H23.625C24.0724 25.3119 24.5012 25.1339 24.8176 24.8176C25.1339 24.5012 25.3119 24.0724 25.3125 23.625V3.375C25.312 2.9276 25.134 2.49868 24.8177 2.18232C24.5013 1.86597 24.0724 1.68801 23.625 1.6875ZM23.625 9.28125H11.8125V3.375H23.625V9.28125ZM10.125 3.375V9.28125H3.375V3.375H10.125ZM3.375 23.625V10.9688H23.6256L23.6267 23.625H3.375Z" fill="#F49B31"/>
</g>
<defs>
<clipPath id="clip0_2754_8334">
<rect width="27" height="27" fill="white"/>
</clipPath>
</defs>
</svg>
