<svg width="1238" height="376" viewBox="0 0 1238 376" fill="none" xmlns="http://www.w3.org/2000/svg">
<path opacity="0.21" d="M214.922 369.141H-0.000183105V6.09375H206.484V69.375H77.3436V154.922H197.344V217.969H77.3436V305.859H214.922V369.141ZM504.872 356.016C478.465 368.984 444.012 375.469 401.512 375.469C346.825 375.469 303.387 359.141 271.2 326.484C239.169 293.672 223.153 250 223.153 195.469C223.153 138.125 241.044 91.25 276.825 54.8438C312.762 18.2812 359.09 0 415.809 0C451.278 0 480.965 4.60938 504.872 13.8281V88.5938C480.34 74.2188 452.528 67.0312 421.434 67.0312C385.965 67.0312 357.606 78.3594 336.356 101.016C315.106 123.672 304.481 153.281 304.481 189.844C304.481 225.469 314.559 254.141 334.715 275.859C354.872 297.578 382.137 308.438 416.512 308.438C448.856 308.438 478.309 300.625 504.872 285V356.016ZM849.9 369.141H772.556V219.375H617.869V369.141H540.525V6.09375H617.869V152.578H772.556V6.09375H849.9V369.141ZM883.209 192.422C883.209 135.547 899.772 89.2969 932.897 53.6719C966.178 17.8906 1010.08 0 1064.62 0C1116.49 0 1158.21 17.2656 1189.77 51.7969C1221.49 86.3281 1237.35 130.703 1237.35 184.922C1237.35 241.484 1220.87 287.422 1187.9 322.734C1155.08 357.891 1112.04 375.469 1058.76 375.469C1006.72 375.469 964.459 358.438 931.959 324.375C899.459 290.156 883.209 246.172 883.209 192.422ZM964.537 188.203C964.537 223.516 973.053 252.422 990.084 274.922C1007.12 297.266 1030.47 308.438 1060.16 308.438C1090.47 308.438 1114.07 297.734 1130.94 276.328C1147.82 254.766 1156.26 225.859 1156.26 189.609C1156.26 151.797 1148.05 121.953 1131.65 100.078C1115.24 78.0469 1092.12 67.0312 1062.27 67.0312C1031.96 67.0312 1008.05 78.2812 990.553 100.781C973.209 123.281 964.537 152.422 964.537 188.203Z" fill="white"/>
</svg>
