<svg width="26" height="27" viewBox="0 0 26 27" fill="none" xmlns="http://www.w3.org/2000/svg">
<g clip-path="url(#clip0_2764_8495)">
<path d="M21.0102 10.0434C19.818 7.53996 17.859 6.07765 15.0637 5.72908C14.1632 5.61678 14.153 5.63689 14.145 4.75632C14.1359 3.74612 14.145 2.73578 14.1387 1.72555C14.1372 1.48396 14.2443 1.41364 14.4814 1.42262C16.2221 1.48859 17.8949 1.8417 19.451 2.6128C20.9714 3.36622 22.2979 4.37379 23.3655 5.68371C25.1938 7.92702 26.0202 10.4956 25.9519 13.3474C25.9427 13.7321 25.8925 14.1171 25.8412 14.4995C25.7718 15.0159 25.7634 15.0158 25.2416 15.0157C23.5995 15.0154 21.9574 15.0135 20.3152 15.0138C18.4053 15.014 16.4953 15.0168 14.5853 15.0165C14.1392 15.0165 14.1525 15.0129 14.1522 14.5815C14.1512 13.4473 14.1417 12.3131 14.1263 11.179C14.1215 10.8284 14.1641 10.7727 14.5858 10.7719C16.4259 10.768 18.2661 10.7676 20.1062 10.7659C20.3507 10.7657 20.5952 10.7651 20.8398 10.7646C21.2422 10.7637 21.2751 10.7193 21.1395 10.351C21.1041 10.255 21.0605 10.1618 21.0102 10.0434Z" fill="#F49C32"/>
<path d="M19.5937 20.6202C20.526 21.5243 21.4323 22.4208 22.3486 23.3074C22.5442 23.4966 22.4919 23.6149 22.3162 23.778C20.497 25.4664 18.3528 26.4979 15.8603 26.8183C12.3596 27.2683 9.21845 26.4167 6.54074 24.1771C4.39423 22.3818 3.07652 20.0833 2.62124 17.3375C2.53389 16.8108 2.44934 16.2864 2.44825 15.7509C2.44776 15.5139 2.50105 15.3991 2.78919 15.4298C3.48535 15.5041 4.18408 15.4154 4.8821 15.4122C5.42859 15.4097 5.97391 15.4844 6.52079 15.4265C6.74429 15.4028 6.78823 15.5449 6.80032 15.726C6.84121 16.338 6.91986 16.94 7.10807 17.5334C7.51387 18.8129 8.21328 19.9007 9.21957 20.8062C10.4028 21.8709 11.7931 22.5009 13.393 22.6692C15.6414 22.9056 17.586 22.2414 19.2422 20.75C19.3348 20.6666 19.418 20.5589 19.5937 20.6202Z" fill="#F49C32"/>
<path d="M1.02882 6.13017C2.42648 3.31358 4.61881 1.43393 7.66794 0.507133C8.57763 0.230627 9.50774 0.130109 10.4488 0.0685435C10.7019 0.0519829 10.8466 0.128535 10.842 0.408173C10.832 1.01012 10.8323 1.61239 10.8401 2.21438C10.8437 2.49327 10.7168 2.58077 10.4385 2.59473C7.95305 2.71941 6.01674 3.85426 4.4763 5.70723C3.73345 6.60079 3.20106 7.6037 2.86916 8.70427C2.71512 9.21505 2.61779 9.74356 2.61625 10.277C2.61552 10.5255 2.51066 10.6129 2.29418 10.6124C1.64248 10.611 0.990806 10.5969 0.33909 10.5935C0.0785222 10.5921 0.0388174 10.4403 0.0444313 10.233C0.0763615 9.05438 0.31247 7.91491 0.731083 6.81089C0.815663 6.58783 0.921884 6.37257 1.02882 6.13017Z" fill="#FFC45C"/>
<path d="M9.1597 4.084C9.6126 4.00632 10.0355 3.93542 10.4676 3.91529C10.7186 3.9036 10.8428 3.9731 10.839 4.23047C10.8332 4.6279 10.8325 5.0256 10.8411 5.42294C10.8459 5.64263 10.7433 5.72222 10.5276 5.73308C8.33941 5.84331 6.95665 7.04237 6.08828 8.90321C5.89226 9.32327 5.78307 9.78494 5.8102 10.2582C5.82483 10.5135 5.71187 10.6026 5.46023 10.5951C5.0648 10.5834 4.66874 10.5867 4.27303 10.5906C4.03529 10.593 3.91675 10.5351 3.93674 10.2563C4.11537 7.76648 5.2795 5.88975 7.53793 4.68137C8.04116 4.41212 8.57295 4.21804 9.1597 4.084Z" fill="#FFC45C"/>
<path d="M7.83481 10.6386C7.32849 10.6293 7.27593 10.5928 7.34035 10.1511C7.5802 8.50672 8.72579 7.38099 10.4521 7.20037C10.7439 7.16984 10.8596 7.27596 10.8414 7.56012C10.8241 7.83114 10.9002 8.12918 10.8079 8.36865C10.7034 8.63995 10.3376 8.53278 10.0966 8.62565C9.32733 8.92218 8.84605 9.46452 8.70824 10.2431C8.64869 10.5796 8.51774 10.6656 8.2167 10.6425C8.10097 10.6336 7.98404 10.6396 7.83481 10.6386Z" fill="#FFC45C"/>
</g>
<defs>
<clipPath id="clip0_2764_8495">
<rect width="26" height="27" fill="white"/>
</clipPath>
</defs>
</svg>
