<svg width="444" height="444" viewBox="0 0 444 444" fill="none" xmlns="http://www.w3.org/2000/svg">
<g opacity="0.6" clip-path="url(#clip0_2754_8453)">
<path d="M358.86 165.151C338.502 123.984 305.047 99.9366 257.312 94.2046C241.934 92.3579 241.761 92.6887 241.624 78.208C241.468 61.5959 241.625 44.9814 241.516 28.3687C241.49 24.396 243.319 23.2395 247.369 23.3873C277.094 24.472 305.661 30.2788 332.234 42.9591C358.197 55.3486 380.85 71.9176 399.081 93.4585C430.303 130.348 444.415 172.587 443.25 219.483C443.093 225.81 442.235 232.142 441.358 238.429C440.174 246.922 440.031 246.92 431.12 246.918C403.077 246.914 375.035 246.882 346.992 246.886C314.376 246.89 281.759 246.935 249.142 246.931C241.525 246.931 241.752 246.872 241.746 239.778C241.729 221.127 241.568 202.475 241.304 183.825C241.223 178.06 241.95 177.145 249.152 177.13C280.575 177.066 311.999 177.061 343.422 177.033C347.598 177.029 351.774 177.02 355.95 177.011C362.821 176.996 363.383 176.266 361.068 170.21C360.464 168.63 359.719 167.099 358.86 165.151Z" fill="black"/>
<path d="M334.668 339.059C350.588 353.926 366.065 368.668 381.714 383.248C385.052 386.359 384.16 388.304 381.159 390.986C350.093 418.752 313.477 435.713 270.913 440.982C211.132 448.383 157.49 434.378 111.763 397.549C75.1075 368.026 52.605 330.229 44.8302 285.076C43.3386 276.414 41.8947 267.792 41.876 258.986C41.8678 255.088 42.7777 253.2 47.6983 253.706C59.5866 254.927 71.5187 253.467 83.4388 253.415C92.7711 253.374 102.084 254.603 111.423 253.651C115.239 253.261 115.99 255.598 116.196 258.575C116.894 268.639 118.237 278.539 121.452 288.297C128.381 309.337 140.325 327.227 157.509 342.117C177.715 359.625 201.457 369.986 228.778 372.752C267.175 376.641 300.382 365.717 328.666 341.192C330.247 339.821 331.667 338.05 334.668 339.059Z" fill="black"/>
<path d="M17.6419 100.772C41.5097 54.4546 78.9478 23.5448 131.018 8.30415C146.552 3.75716 162.436 2.10419 178.505 1.09179C182.828 0.819456 185.3 2.07832 185.22 6.6768C185.049 16.5754 185.055 26.4794 185.188 36.3789C185.25 40.9651 183.082 42.404 178.331 42.6335C135.886 44.6839 102.82 63.3458 76.5143 93.8168C63.8286 108.511 54.737 125.003 49.0692 143.102C46.4387 151.501 44.7765 160.192 44.7502 168.965C44.7379 173.05 42.9472 174.487 39.2504 174.48C28.1212 174.457 16.9927 174.225 5.8634 174.169C1.41371 174.146 0.735673 171.649 0.831541 168.24C1.37681 148.859 5.40883 130.121 12.5574 111.966C14.0018 108.298 15.8157 104.758 17.6419 100.772Z" fill="black"/>
<path d="M156.499 67.1325C164.233 65.8549 171.455 64.689 178.834 64.358C183.12 64.1658 185.24 65.3087 185.176 69.5411C185.077 76.0766 185.065 82.6165 185.212 89.1506C185.293 92.7632 183.541 94.072 179.859 94.2507C142.491 96.0633 118.877 115.781 104.048 146.382C100.701 153.289 98.8363 160.881 99.2995 168.663C99.5494 172.862 97.6203 174.327 93.323 174.204C86.5703 174.011 79.8069 174.065 73.0494 174.13C68.9895 174.169 66.9651 173.217 67.3066 168.633C70.357 127.689 90.2368 96.827 128.804 76.9559C137.397 72.5282 146.479 69.3367 156.499 67.1325Z" fill="black"/>
<path d="M133.851 174.923C125.204 174.77 124.307 174.17 125.407 166.908C129.503 139.866 149.066 121.354 178.546 118.384C183.529 117.882 185.505 119.627 185.194 124.3C184.898 128.757 186.198 133.658 184.622 137.596C182.837 142.057 176.591 140.295 172.476 141.822C159.338 146.698 151.119 155.617 148.766 168.42C147.749 173.953 145.513 175.367 140.372 174.987C138.396 174.841 136.399 174.941 133.851 174.923Z" fill="black"/>
</g>
<defs>
<clipPath id="clip0_2754_8453">
<rect width="444" height="444" fill="white"/>
</clipPath>
</defs>
</svg>
