<svg width="60" height="60" viewBox="0 0 60 60" fill="none" xmlns="http://www.w3.org/2000/svg">
<path d="M21.0001 40C20.7101 40 19.8901 39.1 19.3471 38.503C17.7141 36.7101 15.2461 34 11 34C6.86707 34 6 35.087 6 36C6 36.552 6.44695 37 6.99996 37C7.40391 37 7.75301 36.76 7.90992 36.415C8.10691 36.306 8.85387 36 10.9999 36C14.3619 36 16.3069 38.1351 17.8679 39.85C18.9619 41.0511 19.8259 42 20.9999 42H33.9998C34.5529 42 34.9998 41.552 34.9998 41.0001C34.9998 40.4481 34.5529 40.0001 33.9998 40.0001H21.0001V40Z" fill="#F49B31"/>
<path d="M23.586 7.91016C23.694 8.1082 24 8.8541 24 11.0002C24 14.3621 21.865 16.3062 20.149 17.8682C18.948 18.9621 18 19.8261 18 21.0001V34.0001C18 34.552 18.447 35 19 35C19.553 35 19.9999 34.552 19.9999 34.0001V21.0001C19.9999 20.7101 20.8999 19.8901 21.4959 19.3471C23.29 17.7141 25.9999 15.2461 25.9999 11C25.9999 6.86801 24.912 6 23.9999 6C23.4469 6 22.9999 6.44801 22.9999 6.99996C23 7.40414 23.24 7.75312 23.586 7.91016Z" fill="#F49B31"/>
<path d="M0 19C0 19.5519 0.446953 19.9999 0.999961 19.9999H5.85398C5.93695 20.38 6 20.7309 6 20.9999V30.9998C6 31.5518 6.44695 31.9998 6.99996 31.9998C7.55297 31.9998 7.99992 31.5518 7.99992 30.9998V21C7.99992 19.95 7.5859 18.6139 7.1059 17.067C6.58805 15.395 6 13.5 6 12V3C6 2.44898 6.44801 2.00004 6.99996 2.00004C7.55191 2.00004 7.99992 2.44898 7.99992 3C7.99992 3.55195 8.44688 3.99996 8.99988 3.99996C9.55289 3.99996 9.99984 3.55195 9.99984 3C9.99984 2.44898 10.4479 2.00004 10.9998 2.00004C11.5518 2.00004 11.9998 2.44898 11.9998 3C11.9998 3.55195 12.4467 3.99996 12.9997 3.99996C13.5527 3.99996 13.9997 3.55195 13.9997 3C13.9997 2.44898 14.4477 2.00004 14.9996 2.00004C15.5516 2.00004 15.9996 2.44898 15.9996 3C15.9996 3.55195 16.4466 3.99996 16.9996 3.99996C17.5526 3.99996 18 3.55195 18 3C18 2.44898 18.448 2.00004 19 2.00004C19.5519 2.00004 19.9999 2.44898 19.9999 3V11C19.9999 11.552 20.4469 12 20.9999 12C21.5529 12 21.9998 11.552 21.9998 11V3C21.9998 1.34602 20.6538 0 18.9998 0C18.2318 0 17.5309 0.290039 16.9998 0.766055C16.4689 0.290039 15.768 0 15 0C14.232 0 13.5311 0.290039 13 0.766055C12.469 0.290039 11.768 0 11 0C10.232 0 9.53098 0.290039 9 0.766055C8.46902 0.290039 7.76801 0 6.99996 0C5.34598 0 3.99996 1.34602 3.99996 3V6H0.999961C0.446953 6 0 6.44801 0 6.99996C0 7.55191 0.446953 7.99992 0.999961 7.99992H3.99996V12C3.99996 13.803 4.63594 15.852 5.19598 17.66C5.23195 17.775 5.26594 17.8861 5.30098 18H0.999961C0.446953 18 0 18.448 0 19Z" fill="#F49B31"/>
<path d="M40.653 21.497C42.286 23.29 44.7539 26 49 26C53.133 26 54 24.913 54 24C54 23.448 53.5531 23 53.0001 23C52.5961 23 52.247 23.24 52.0901 23.585C51.8931 23.694 51.1462 24 49.0001 24C45.6381 24 43.6932 21.865 42.1321 20.15C41.038 18.949 40.1741 18 39.0002 18H26C25.447 18 25 18.448 25 19C25 19.5519 25.447 19.9999 26 19.9999H38.9999C39.29 20 40.1099 20.9 40.653 21.497Z" fill="#F49B31"/>
<path d="M31 51.9998H21C19.9489 51.9998 18.613 52.4138 17.067 52.8938C15.396 53.4118 13.5 53.9998 12 53.9998H3C2.44805 53.9998 2.00004 53.5509 2.00004 52.9999C2.00004 52.4489 2.44805 51.9999 3 51.9999C3.55301 51.9999 3.99996 51.5519 3.99996 51C3.99996 50.448 3.55301 50 3 50C2.44805 50 2.00004 49.5511 2.00004 49C2.00004 48.449 2.44805 47.9998 3 47.9998C3.55301 47.9998 3.99996 47.5518 3.99996 46.9999C3.99996 46.4479 3.55301 45.9999 3 45.9999C2.44805 45.9999 2.00004 45.551 2.00004 45C2.00004 44.4489 2.44805 44 3 44C3.55301 44 3.99996 43.552 3.99996 43C3.99996 42.4481 3.55301 41.9998 3 41.9998C2.44805 41.9998 2.00004 41.5509 2.00004 40.9999C2.00004 40.4489 2.44805 39.9999 3 39.9999H11C11.553 39.9999 12 39.5519 12 39C12 38.448 11.553 38 11 38H3C1.34602 38 0 39.346 0 41C0 41.768 0.290039 42.4689 0.766055 43C0.290039 43.5309 0 44.2318 0 44.9998C0 45.7679 0.290039 46.4689 0.766055 46.9999C0.290039 47.5309 0 48.2319 0 48.9998C0 49.7679 0.290039 50.4688 0.766055 50.9998C0.290039 51.5308 0 52.2318 0 52.9999C0 54.6539 1.34602 55.9999 3 55.9999H6V58.9999C6 59.5518 6.44695 59.9998 6.99996 59.9998C7.55297 59.9998 7.99992 59.5518 7.99992 58.9999V55.9999H12C13.803 55.9999 15.852 55.3648 17.659 54.8039C17.775 54.7679 17.886 54.7348 18 54.6999V58.9999C18 59.5518 18.447 59.9998 19 59.9998C19.553 59.9998 19.9999 59.5518 19.9999 58.9999V54.1459C20.3809 54.0618 20.7309 53.9998 20.9999 53.9998H30.9998C31.5529 53.9998 31.9998 53.5518 31.9998 52.9999C32 52.4478 31.553 51.9998 31 51.9998Z" fill="#F49B31"/>
<path d="M59.2339 9C59.7098 8.46902 59.9998 7.76801 59.9998 6.99996C59.9998 5.34598 58.6538 3.99996 56.9998 3.99996H53.9998V0.999961C53.9998 0.448008 53.5529 0 52.9998 0C52.4468 0 51.9999 0.448008 51.9999 0.999961V3.99996H47.9998C46.1968 3.99996 44.1479 4.635 42.3408 5.19598C42.2248 5.23195 42.1138 5.265 41.9998 5.29992V0.999961C41.9998 0.448008 41.5529 0 40.9998 0C40.4468 0 39.9999 0.448008 39.9999 0.999961V5.85398C39.6189 5.93801 39.2689 6 38.9999 6H29C28.447 6 28 6.44801 28 6.99996C28 7.55191 28.447 7.99992 29 7.99992H38.9998C40.0509 7.99992 41.3868 7.5859 42.9329 7.1059C44.6038 6.58805 46.4998 6 47.9998 6H56.9998C57.5518 6 57.9998 6.44895 57.9998 6.99996C57.9998 7.55098 57.5518 7.99992 56.9998 7.99992C56.4468 7.99992 55.9998 8.44793 55.9998 8.99988C55.9998 9.55184 56.4468 9.99984 56.9998 9.99984C57.5518 9.99984 57.9998 10.4488 57.9998 10.9998C57.9998 11.5508 57.5518 11.9998 56.9998 11.9998C56.4468 11.9998 55.9998 12.4478 55.9998 12.9997C55.9998 13.5517 56.4468 13.9997 56.9998 13.9997C57.5518 13.9997 57.9998 14.4486 57.9998 14.9996C57.9998 15.5507 57.5518 15.9996 56.9998 15.9996C56.4468 15.9996 55.9998 16.4476 55.9998 16.9996C55.9998 17.5515 56.4468 17.9995 56.9998 17.9995C57.5518 17.9995 57.9998 18.4485 57.9998 18.9995C57.9998 19.5505 57.5518 19.9995 56.9998 19.9995H48.9998C48.4468 19.9995 47.9998 20.4475 47.9998 20.9994C47.9998 21.5514 48.4468 21.9994 48.9998 21.9994H56.9998C58.6538 21.9994 59.9998 20.6534 59.9998 18.9994C59.9998 18.2313 59.7098 17.5304 59.2339 16.9993C59.7098 16.4689 59.9998 15.768 59.9998 15C59.9998 14.232 59.7098 13.5311 59.2339 13C59.7099 12.469 59.9998 11.768 59.9998 10.9999C59.9998 10.232 59.7098 9.53098 59.2339 9Z" fill="#F49B31"/>
<path d="M36.4139 52.0899C36.3059 51.8918 35.9999 51.1459 35.9999 48.9999C35.9999 45.6379 38.135 43.6939 39.8509 42.1319C41.052 41.0378 41.9999 40.1739 41.9999 38.9999V26C41.9999 25.448 41.553 25 41 25C40.447 25 40 25.448 40 26V38.9999C40 39.29 39.1 40.1099 38.504 40.653C36.71 42.286 34 44.7539 34 49C34 53.132 35.088 54 36 54C36.553 54 37 53.552 37 53.0001C36.9999 52.5959 36.7599 52.2469 36.4139 52.0899Z" fill="#F49B31"/>
<path d="M60.0002 40.9998C60.0002 40.4479 59.5533 39.9999 59.0003 39.9999H54.1462C54.0633 39.6198 54.0002 39.2689 54.0002 38.9999V29C54.0002 28.448 53.5533 28 53.0003 28C52.4473 28 52.0003 28.448 52.0003 29V38.9998C52.0003 40.0498 52.4143 41.3859 52.8943 42.9329C53.4123 44.6049 54.0003 46.4998 54.0003 47.9998V56.9998C54.0003 57.5508 53.5523 57.9998 53.0004 57.9998C52.4484 57.9998 52.0004 57.5508 52.0004 56.9998C52.0004 56.4479 51.5535 55.9998 51.0005 55.9998C50.4475 55.9998 50.0005 56.4479 50.0005 56.9998C50.0005 57.5508 49.5525 57.9998 49.0005 57.9998C48.4486 57.9998 48.0006 57.5508 48.0006 56.9998C48.0006 56.4479 47.5536 55.9998 47.0006 55.9998C46.4476 55.9998 46.0007 56.4479 46.0007 56.9998C46.0007 57.5508 45.5527 57.9998 45.0007 57.9998C44.4487 57.9998 44.0007 57.5508 44.0007 56.9998C44.0007 56.4479 43.5538 55.9998 43.0008 55.9998C42.4478 55.9998 42.0008 56.4479 42.0008 56.9998C42.0008 57.5508 41.5528 57.9998 41.0009 57.9998C40.4489 57.9998 40.0009 57.5508 40.0009 56.9998V48.9998C40.0009 48.4478 39.5539 47.9998 39.0009 47.9998C38.4479 47.9998 38.001 48.4478 38.001 48.9998V56.9998C38.001 58.6538 39.347 59.9998 41.001 59.9998C41.769 59.9998 42.4699 59.7098 43.001 59.2339C43.5313 59.7098 44.2322 59.9998 45.0002 59.9998C45.7683 59.9998 46.4693 59.7098 47.0003 59.2339C47.5312 59.7099 48.2323 59.9998 49.0003 59.9998C49.7684 59.9998 50.4693 59.7098 51.0003 59.2339C51.5313 59.7099 52.2323 59.9998 53.0004 59.9998C54.6544 59.9998 56.0004 58.6538 56.0004 56.9998V53.9998H59.0004C59.5534 53.9998 60.0003 53.5518 60.0003 52.9998C60.0003 52.4479 59.5534 51.9999 59.0004 51.9999H56.0004V47.9998C56.0004 46.1968 55.3644 44.1479 54.8044 42.3398C54.7684 42.2248 54.7344 42.1137 54.6994 41.9998H59.0004C59.5533 41.9998 60.0002 41.5518 60.0002 40.9998Z" fill="#F49B31"/>
</svg>
