<svg width="24" height="24" viewBox="0 0 24 24" fill="none" xmlns="http://www.w3.org/2000/svg">
<g clip-path="url(#clip0_2758_8571)">
<path d="M12.0002 10.6953C10.908 10.6953 10.0195 11.589 10.0195 12.6876C10.0195 12.8905 10.184 13.055 10.3869 13.055C10.5898 13.055 10.7543 12.8905 10.7543 12.6876C10.7543 11.9942 11.3132 11.43 12.0002 11.43C12.6873 11.43 13.2463 11.9942 13.2463 12.6876C13.2463 12.8905 13.4108 13.055 13.6136 13.055C13.8165 13.055 13.981 12.8905 13.981 12.6876C13.981 11.589 13.0924 10.6953 12.0002 10.6953Z" fill="#FEF5EA"/>
<path d="M21.7272 5.26312V5.26303C21.6251 3.90586 21.0498 2.64352 20.0812 1.67044C19.0085 0.593203 17.5826 0 16.066 0C14.5492 0 13.1232 0.59325 12.0509 1.67053L11.9998 1.72191L11.9485 1.67039C10.8758 0.593203 9.44986 0 7.9335 0C6.41653 0 4.99055 0.59325 3.91828 1.67039C2.8462 2.74687 2.25586 4.17839 2.25586 5.70122C2.25586 7.22391 2.84625 8.65537 3.91814 9.73181L11.0125 16.8646C11.2766 17.1292 11.6272 17.2749 11.9998 17.2749C12.3723 17.2749 12.7229 17.1292 12.9873 16.8641L16.3011 13.5325C16.4442 13.3886 16.4436 13.156 16.2997 13.013C16.1559 12.8699 15.9233 12.8705 15.7803 13.0143L12.4669 16.3456C12.3417 16.4711 12.1758 16.5402 11.9999 16.5402C11.8238 16.5402 11.658 16.4711 11.5331 16.346L4.43883 9.21356C3.50489 8.27564 2.99048 7.0283 2.99048 5.70122C2.99048 4.374 3.50489 3.12666 4.43887 2.18873C5.37234 1.25105 6.61336 0.734672 7.93345 0.734672C9.25308 0.734672 10.494 1.25109 11.4277 2.18869L16.2162 7.01691C16.0824 7.5008 15.6422 7.85686 15.1208 7.85686C14.4937 7.85686 13.9834 7.3418 13.9834 6.7088C13.9834 6.50587 13.8189 6.34144 13.6161 6.34144C13.4132 6.34144 13.2487 6.50587 13.2487 6.7088C13.2487 7.74698 14.0885 8.59158 15.1207 8.59158C15.8395 8.59158 16.4645 8.18203 16.778 7.58273L18.9784 9.79884L16.8518 11.9368C16.7088 12.0807 16.7093 12.3133 16.8532 12.4563C16.997 12.5993 17.2296 12.5987 17.3727 12.4549L20.0812 9.73186C21.1532 8.65481 21.7436 7.2233 21.7436 5.70117C21.7437 5.55422 21.738 5.40811 21.7272 5.26312ZM20.4596 7.98108L17.2871 4.78594C17.1441 4.64198 16.9116 4.64119 16.7676 4.78406C16.6236 4.92703 16.6228 5.15958 16.7657 5.30358L20.0629 8.62434C19.9121 8.83153 19.7446 9.02873 19.5605 9.2137L19.4965 9.27801L12.5146 2.24611L12.5717 2.18873C12.7582 2.00142 12.957 1.83122 13.1662 1.67827L15.8419 4.37306C15.9137 4.44534 16.0081 4.48158 16.1026 4.48158C16.1962 4.48158 16.2898 4.446 16.3614 4.37489C16.5054 4.23192 16.5062 3.99937 16.3633 3.85537L13.8073 1.28109C14.0356 1.16302 14.2725 1.06298 14.5163 0.982406L20.7589 7.26834C20.6781 7.51355 20.5778 7.75172 20.4596 7.98108ZM20.957 6.4253L15.3571 0.785297C15.5899 0.751922 15.8266 0.734719 16.0661 0.734719C16.1512 0.734719 16.2359 0.736969 16.3202 0.741234L18.8077 3.24647C18.8796 3.31875 18.974 3.35498 19.0684 3.35498C19.162 3.35498 19.2556 3.31941 19.3273 3.2483C19.4712 3.10533 19.4721 2.87278 19.3291 2.72883L17.5857 0.973125C18.3223 1.21125 18.9974 1.62328 19.5606 2.18878C20.1269 2.7577 20.5386 3.44039 20.7752 4.18533L20.3505 3.7575C20.2075 3.61355 19.9749 3.61275 19.8309 3.75562C19.687 3.89859 19.6861 4.13114 19.8291 4.27509L21.0031 5.45761C21.007 5.53847 21.009 5.61975 21.009 5.70126C21.009 5.94576 20.9914 6.18759 20.957 6.4253Z" fill="#FEF5EA"/>
<path d="M9.5183 8.47878C10.2367 8.21548 10.751 7.52164 10.751 6.70916C10.751 6.50623 10.5865 6.3418 10.3837 6.3418C10.1808 6.3418 10.0163 6.50623 10.0163 6.70916C10.0163 7.3422 9.50607 7.85722 8.87893 7.85722C8.25179 7.85722 7.74155 7.34216 7.74155 6.70916C7.74155 6.50623 7.57707 6.3418 7.3742 6.3418C7.17132 6.3418 7.00684 6.50623 7.00684 6.70916C7.00684 7.52239 7.52213 8.2167 8.24162 8.47948L7.83812 9.02694C7.34888 9.65595 7.36745 10.4505 7.8841 10.961C8.15007 11.2235 8.50327 11.3687 8.88015 11.3698H8.88052C8.8809 11.3698 8.88132 11.3698 8.88165 11.3698C9.25726 11.3687 9.6106 11.2235 9.87648 10.9609C10.3888 10.4547 10.4079 9.66069 9.9233 9.02858L9.5183 8.47878ZM9.36038 10.4381C9.23251 10.5644 9.06198 10.6343 8.88029 10.6351C8.69879 10.6343 8.52835 10.5644 8.40048 10.4382C8.14909 10.1898 8.15687 9.81186 8.42026 9.47525C8.42241 9.47244 8.42457 9.46967 8.42668 9.46681L8.88034 8.85139L9.33423 9.46728C9.33573 9.46934 9.33732 9.47145 9.33887 9.47347C9.60085 9.81359 9.60924 10.1923 9.36038 10.4381Z" fill="#FEF5EA"/>
<path d="M15.8149 18.3723L15.1661 17.492C15.0744 17.3674 14.927 17.293 14.7717 17.293C14.6165 17.293 14.4691 17.3674 14.3775 17.4918L13.7297 18.3708C13.2404 18.9997 13.2589 19.7943 13.7756 20.3048C14.0417 20.5673 14.3949 20.7125 14.7716 20.7136H14.772C14.7723 20.7136 14.7727 20.7136 14.7731 20.7136C15.1486 20.7125 15.5019 20.5673 15.768 20.3047C16.2803 19.7986 16.2994 19.0045 15.8149 18.3723ZM15.2519 19.7819C15.1239 19.9083 14.9534 19.9782 14.7717 19.9789C14.5903 19.9782 14.4198 19.9083 14.2919 19.782C14.0406 19.5336 14.0483 19.1557 14.3117 18.8191C14.3138 18.8163 14.316 18.8135 14.3181 18.8106L14.7718 18.1952L15.2256 18.811C15.2271 18.8131 15.2287 18.8151 15.2302 18.8172C15.4921 19.1575 15.5006 19.5362 15.2519 19.7819Z" fill="#FEF5EA"/>
<path d="M10.2738 18.0423L9.62498 17.1619C9.5332 17.0373 9.38582 16.9629 9.23067 16.9629C9.07556 16.9629 8.92818 17.0372 8.8365 17.1617L8.18859 18.0406C7.69935 18.6697 7.71792 19.4642 8.23457 19.9747C8.50059 20.2373 8.85379 20.3825 9.23057 20.3836H9.23095C9.23128 20.3836 9.2317 20.3836 9.23203 20.3836C9.60759 20.3825 9.96089 20.2373 10.2269 19.9747C10.7393 19.4686 10.7583 18.6745 10.2738 18.0423ZM9.71076 19.4519C9.58279 19.5782 9.41226 19.6482 9.23062 19.6489C9.04917 19.6481 8.87873 19.5782 8.75085 19.452C8.49951 19.2036 8.50725 18.8256 8.77064 18.489C8.77279 18.4862 8.77495 18.4834 8.77706 18.4806L9.23071 17.8651L9.68456 18.481C9.68606 18.4831 9.68765 18.4852 9.6892 18.4872C9.95104 18.8275 9.95953 19.2062 9.71076 19.4519Z" fill="#FEF5EA"/>
<path d="M13.0443 21.6595L12.3953 20.7789C12.3036 20.6544 12.1562 20.5801 12.0012 20.5801C11.8461 20.5801 11.6988 20.6544 11.607 20.7789L10.9591 21.6579C10.4698 22.2869 10.4885 23.0815 11.0051 23.5919C11.2711 23.8545 11.6243 23.9997 12.0011 24.0008H12.0015C12.0018 24.0008 12.0022 24.0008 12.0026 24.0008C12.3781 23.9997 12.7314 23.8545 12.9975 23.5918C13.5098 23.0857 13.5289 22.2916 13.0443 21.6595ZM12.4812 23.069C12.3532 23.1954 12.1827 23.2653 12.0011 23.2661C11.8196 23.2653 11.6492 23.1954 11.5213 23.0691C11.2699 22.8208 11.2776 22.4428 11.541 22.1062C11.5432 22.1034 11.5454 22.1006 11.5475 22.0978L12.0011 21.4823L12.455 22.0982C12.4565 22.1003 12.4581 22.1023 12.4596 22.1044C12.7215 22.4446 12.73 22.8233 12.4812 23.069Z" fill="#FEF5EA"/>
</g>
<defs>
<clipPath id="clip0_2758_8571">
<rect width="24" height="24" fill="white"/>
</clipPath>
</defs>
</svg>
