<svg width="27" height="27" viewBox="0 0 27 27" fill="none" xmlns="http://www.w3.org/2000/svg">
<g clip-path="url(#clip0_2754_8319)">
<path d="M25.2581 7.40234H24.3871V26.1281H23.5161V7.40234H22.6452V26.1281H21.7742V17.4185H20.9032V26.1281H20.0323V17.4185H19.1613V26.1281H18.2903V15.2411H17.4194V26.1281H16.5484V15.2411H15.6774V26.1281H14.8065V16.112H13.9355V26.1281H13.0645V16.112H12.1935V26.1281H11.3226V10.0152H10.4516V26.1281H9.58065V10.0152H8.70968V26.1281H7.83871V18.2894H6.96774V26.1281H6.09677V18.2894H5.22581V26.1281H4.35484V16.5475H3.48387V26.1281H2.6129V16.5475H1.74194V26.1281H0V26.9991H27V26.1281H25.2581V7.40234Z" fill="#F49B31"/>
<path d="M3.04839 15.2413C4.72892 15.2413 6.09677 13.8735 6.09677 12.1929C6.09677 10.5124 4.72892 9.14453 3.04839 9.14453C1.36785 9.14453 0 10.5124 0 12.1929C0 13.8735 1.36785 15.2413 3.04839 15.2413ZM3.91935 14.1857C3.65197 14.3033 3.35845 14.3703 3.04839 14.3703C2.73832 14.3703 2.44481 14.3033 2.17742 14.1857V13.9349C2.17742 13.4545 2.56805 13.0639 3.04839 13.0639C3.52873 13.0639 3.91935 13.4545 3.91935 13.9349V14.1857ZM2.6129 11.7574C2.6129 11.517 2.808 11.322 3.04839 11.322C3.28877 11.322 3.48387 11.517 3.48387 11.7574C3.48387 11.9978 3.28877 12.1929 3.04839 12.1929C2.808 12.1929 2.6129 11.9978 2.6129 11.7574ZM3.04839 10.0155C4.24902 10.0155 5.22581 10.9923 5.22581 12.1929C5.22581 12.7059 5.04029 13.1715 4.74242 13.5438C4.64836 13.1362 4.41014 12.786 4.08527 12.543C4.25206 12.324 4.35484 12.0536 4.35484 11.7574C4.35484 11.0371 3.76868 10.451 3.04839 10.451C2.3281 10.451 1.74194 11.0371 1.74194 11.7574C1.74194 12.0536 1.84471 12.324 2.0115 12.5435C1.68663 12.786 1.44842 13.1366 1.35435 13.5442C1.05648 13.1715 0.870968 12.7059 0.870968 12.1929C0.870968 10.9923 1.84776 10.0155 3.04839 10.0155Z" fill="#F49B31"/>
<path d="M10.0162 8.71006C11.6967 8.71006 13.0645 7.3422 13.0645 5.66167C13.0645 3.98114 11.6967 2.61328 10.0162 2.61328C8.33563 2.61328 6.96777 3.98114 6.96777 5.66167C6.96777 7.3422 8.33563 8.71006 10.0162 8.71006ZM10.8871 7.65444C10.6197 7.77202 10.3262 7.83909 10.0162 7.83909C9.7061 7.83909 9.41258 7.77202 9.14519 7.65444V7.4036C9.14519 6.92326 9.53582 6.53264 10.0162 6.53264C10.4965 6.53264 10.8871 6.92326 10.8871 7.4036V7.65444ZM9.58068 5.22618C9.58068 4.9858 9.77577 4.7907 10.0162 4.7907C10.2565 4.7907 10.4516 4.9858 10.4516 5.22618C10.4516 5.46657 10.2565 5.66167 10.0162 5.66167C9.77577 5.66167 9.58068 5.46657 9.58068 5.22618ZM10.0162 3.48425C11.2168 3.48425 12.1936 4.46104 12.1936 5.66167C12.1936 6.17467 12.0081 6.6402 11.7102 7.01254C11.6161 6.60493 11.3779 6.2548 11.053 6.0118C11.2198 5.79275 11.3226 5.52231 11.3226 5.22618C11.3226 4.50589 10.7365 3.91973 10.0162 3.91973C9.29587 3.91973 8.70971 4.50589 8.70971 5.22618C8.70971 5.52231 8.81248 5.79275 8.97927 6.01223C8.6544 6.2548 8.41619 6.60536 8.32213 7.01298C8.02426 6.6402 7.83874 6.17467 7.83874 5.66167C7.83874 4.46104 8.81553 3.48425 10.0162 3.48425Z" fill="#F49B31"/>
<path d="M16.9839 13.9347C18.6645 13.9347 20.0323 12.5668 20.0323 10.8863C20.0323 9.20575 18.6645 7.83789 16.9839 7.83789C15.3034 7.83789 13.9355 9.20575 13.9355 10.8863C13.9355 12.5668 15.3034 13.9347 16.9839 13.9347ZM17.8549 12.8791C17.5875 12.9966 17.294 13.0637 16.9839 13.0637C16.6739 13.0637 16.3804 12.9966 16.113 12.8791V12.6282C16.113 12.1479 16.5036 11.7572 16.9839 11.7572C17.4643 11.7572 17.8549 12.1479 17.8549 12.6282V12.8791ZM16.5484 10.4508C16.5484 10.2104 16.7435 10.0153 16.9839 10.0153C17.2243 10.0153 17.4194 10.2104 17.4194 10.4508C17.4194 10.6912 17.2243 10.8863 16.9839 10.8863C16.7435 10.8863 16.5484 10.6912 16.5484 10.4508ZM16.9839 8.70886C18.1846 8.70886 19.1614 9.68565 19.1614 10.8863C19.1614 11.3993 18.9758 11.8648 18.678 12.2371C18.5839 11.8295 18.3457 11.4794 18.0208 11.2364C18.1876 11.0174 18.2904 10.7469 18.2904 10.4508C18.2904 9.7305 17.7042 9.14434 16.9839 9.14434C16.2636 9.14434 15.6775 9.7305 15.6775 10.4508C15.6775 10.7469 15.7803 11.0174 15.947 11.2368C15.6222 11.4794 15.384 11.83 15.2899 12.2376C14.992 11.8648 14.8065 11.3993 14.8065 10.8863C14.8065 9.68565 15.7833 8.70886 16.9839 8.70886Z" fill="#F49B31"/>
<path d="M23.9517 6.09677C25.6322 6.09677 27.0001 4.72892 27.0001 3.04839C27.0001 1.36785 25.6322 0 23.9517 0C22.2712 0 20.9033 1.36785 20.9033 3.04839C20.9033 4.72892 22.2712 6.09677 23.9517 6.09677ZM24.8227 5.04116C24.5553 5.15874 24.2618 5.22581 23.9517 5.22581C23.6416 5.22581 23.3481 5.15874 23.0807 5.04116V4.79032C23.0807 4.30998 23.4714 3.91935 23.9517 3.91935C24.432 3.91935 24.8227 4.30998 24.8227 4.79032V5.04116ZM23.5162 2.6129C23.5162 2.37252 23.7113 2.17742 23.9517 2.17742C24.1921 2.17742 24.3872 2.37252 24.3872 2.6129C24.3872 2.85329 24.1921 3.04839 23.9517 3.04839C23.7113 3.04839 23.5162 2.85329 23.5162 2.6129ZM23.9517 0.870968C25.1523 0.870968 26.1291 1.84776 26.1291 3.04839C26.1291 3.56139 25.9436 4.02692 25.6457 4.39926C25.5517 3.99165 25.3135 3.64152 24.9886 3.39852C25.1554 3.17947 25.2582 2.90903 25.2582 2.6129C25.2582 1.89261 24.672 1.30645 23.9517 1.30645C23.2314 1.30645 22.6453 1.89261 22.6453 2.6129C22.6453 2.90903 22.748 3.17947 22.9148 3.39895C22.5899 3.64152 22.3517 3.99208 22.2577 4.39969C21.9598 4.02692 21.7743 3.56139 21.7743 3.04839C21.7743 1.84776 22.7511 0.870968 23.9517 0.870968Z" fill="#F49B31"/>
</g>
<defs>
<clipPath id="clip0_2754_8319">
<rect width="27" height="27" fill="white"/>
</clipPath>
</defs>
</svg>
