<svg width="18" height="18" viewBox="0 0 18 18" fill="none" xmlns="http://www.w3.org/2000/svg">
<path d="M9.09961 8.89961C8.69961 8.49961 8.09961 8.49961 7.69961 8.89961L6.99961 9.59961L6.29961 8.89961C5.89961 8.49961 5.29961 8.49961 4.89961 8.89961C4.49961 9.29961 4.49961 9.89961 4.89961 10.2996L5.59961 10.9996L4.89961 11.6996C4.49961 12.0996 4.49961 12.6996 4.89961 13.0996C5.09961 13.2996 5.39961 13.3996 5.59961 13.3996C5.79961 13.3996 6.09961 13.2996 6.29961 13.0996L6.99961 12.3996L7.69961 13.0996C7.89961 13.2996 8.19961 13.3996 8.39961 13.3996C8.59961 13.3996 8.89961 13.2996 9.09961 13.0996C9.49961 12.6996 9.49961 12.0996 9.09961 11.6996L8.39961 10.9996L9.09961 10.2996C9.49961 9.89961 9.49961 9.29961 9.09961 8.89961Z" fill="#FEF5EA"/>
<path d="M14 0H8C5.8 0 4 1.8 4 4C1.8 4 0 5.8 0 8V14C0 16.2 1.8 18 4 18H10C12.2 18 14 16.2 14 14C16.2 14 18 12.2 18 10V4C18 1.8 16.2 0 14 0ZM12 13V14C12 15.1 11.1 16 10 16H4C2.9 16 2 15.1 2 14V8C2 6.9 2.9 6 4 6H5H10C11.1 6 12 6.9 12 8V13ZM16 10C16 11.1 15.1 12 14 12V8C14 5.8 12.2 4 10 4H6C6 2.9 6.9 2 8 2H14C15.1 2 16 2.9 16 4V10Z" fill="#FEF5EA"/>
</svg>
