<svg width="51" height="50" viewBox="0 0 51 50" fill="none" xmlns="http://www.w3.org/2000/svg">
<path d="M42.4505 39.7563C39.215 43.4781 34.8744 46.0681 30.0625 47.1481C25.2506 48.2281 20.2194 47.7415 15.7037 45.7594C11.1879 43.7768 7.42433 40.4024 4.96242 36.1291C2.50052 31.8557 1.46927 26.9073 2.01929 22.0062C2.56887 17.1048 4.67118 12.5074 8.01917 8.88565C11.3672 5.26387 15.7854 2.80739 20.6287 1.875M29.388 1.89375C32.6404 2.52012 35.7203 3.83783 38.4193 5.75772C41.1182 7.67762 43.3733 10.1549 45.0318 13.0219C46.6905 15.8889 47.7139 19.0788 48.0328 22.3757C48.3517 25.6726 47.9586 28.9995 46.8802 32.1312" stroke="#F49B31" stroke-width="3.75" stroke-linecap="round"/>
<path d="M20.0127 23.3496V18.8809C20.0127 16.1712 22.2511 13.9746 25.0127 13.9746C27.7743 13.9746 30.0127 16.1712 30.0127 18.8809V23.3496M18.7627 23.3496H31.2627C32.6477 23.3496 33.7627 24.4646 33.7627 25.8496V32.7246C33.7627 34.1096 32.6477 35.2246 31.2627 35.2246H18.7627C17.3777 35.2246 16.2627 34.1096 16.2627 32.7246V25.8496C16.2627 24.4646 17.3777 23.3496 18.7627 23.3496Z" stroke="#F49B31" stroke-width="3.75"/>
</svg>
