<svg width="25" height="27" viewBox="0 0 25 27" fill="none" xmlns="http://www.w3.org/2000/svg">
<g clip-path="url(#clip0_2760_8123)">
<path d="M20.2025 10.0621C19.0561 7.55212 17.1724 6.08597 14.4846 5.73648C13.6188 5.62389 13.609 5.64406 13.6013 4.76116C13.5925 3.74832 13.6013 2.73532 13.5952 1.72244C13.5938 1.48022 13.6968 1.40971 13.9248 1.41872C15.5985 1.48486 17.207 1.8389 18.7032 2.61202C20.1651 3.36742 21.4406 4.37763 22.4671 5.691C24.2252 7.94019 25.0197 10.5155 24.9541 13.3748C24.9453 13.7605 24.897 14.1466 24.8476 14.5299C24.7809 15.0477 24.7729 15.0476 24.2711 15.0475C22.6921 15.0472 21.1132 15.0453 19.5342 15.0455C17.6977 15.0458 15.8612 15.0486 14.0246 15.0483C13.5958 15.0483 13.6086 15.0447 13.6082 14.6121C13.6072 13.475 13.5981 12.3378 13.5833 11.2007C13.5787 10.8492 13.6196 10.7934 14.0252 10.7925C15.7945 10.7886 17.5639 10.7882 19.3332 10.7865C19.5683 10.7863 19.8035 10.7858 20.0386 10.7852C20.4255 10.7843 20.4571 10.7398 20.3268 10.3706C20.2928 10.2743 20.2508 10.1809 20.2025 10.0621Z" fill="black"/>
<path d="M18.8405 20.6652C19.7369 21.5716 20.6084 22.4704 21.4895 23.3594C21.6775 23.5491 21.6272 23.6677 21.4583 23.8312C19.7091 25.5241 17.6473 26.5582 15.2507 26.8795C11.8847 27.3307 8.8643 26.4768 6.28958 24.2313C4.22564 22.4313 2.9586 20.1268 2.52083 17.3738C2.43685 16.8457 2.35555 16.32 2.3545 15.7831C2.35403 15.5454 2.40527 15.4303 2.68233 15.4611C3.35171 15.5356 4.02356 15.4466 4.69474 15.4434C5.22021 15.4409 5.74456 15.5159 6.2704 15.4578C6.48531 15.434 6.52755 15.5765 6.53919 15.758C6.5785 16.3717 6.65412 16.9752 6.8351 17.5702C7.22529 18.853 7.8978 19.9438 8.86538 20.8516C10.0031 21.9191 11.3399 22.5508 12.8783 22.7195C15.0403 22.9565 16.91 22.2905 18.5026 20.7953C18.5916 20.7117 18.6716 20.6037 18.8405 20.6652Z" fill="black"/>
<path d="M0.989967 6.13632C2.33387 3.31234 4.44187 1.42775 7.37373 0.498525C8.24844 0.221293 9.14277 0.12051 10.0476 0.0587835C10.291 0.0421794 10.4302 0.118933 10.4257 0.399305C10.4161 1.00283 10.4164 1.60668 10.4239 2.21025C10.4274 2.48988 10.3053 2.57761 10.0378 2.5916C7.64788 2.71661 5.78604 3.85444 4.30485 5.71227C3.59057 6.60819 3.07866 7.61373 2.75952 8.71719C2.61141 9.22931 2.51782 9.7592 2.51633 10.2941C2.51564 10.5431 2.41481 10.6308 2.20666 10.6303C1.58002 10.629 0.953412 10.6148 0.326761 10.6114C0.0762157 10.61 0.038038 10.4577 0.043436 10.2499C0.0741382 9.06821 0.301166 7.92576 0.703678 6.81884C0.785005 6.59518 0.88714 6.37936 0.989967 6.13632Z" fill="black"/>
<path d="M8.80834 4.08543C9.24382 4.00753 9.65045 3.93645 10.066 3.91627C10.3073 3.90455 10.4267 3.97423 10.4231 4.23228C10.4175 4.63075 10.4168 5.02949 10.4251 5.42788C10.4296 5.64814 10.331 5.72794 10.1237 5.73883C8.0196 5.84936 6.69002 7.05156 5.85505 8.91729C5.66657 9.33845 5.56159 9.80134 5.58767 10.2758C5.60174 10.5318 5.49312 10.6211 5.25116 10.6136C4.87093 10.6019 4.49011 10.6052 4.10962 10.6091C3.88102 10.6115 3.76704 10.5534 3.78627 10.274C3.95802 7.77757 5.07738 5.89591 7.24895 4.68436C7.73282 4.4144 8.24416 4.21982 8.80834 4.08543Z" fill="black"/>
<path d="M7.53272 10.6574C7.04588 10.6481 6.99534 10.6115 7.05728 10.1687C7.28791 8.51992 8.38943 7.39125 10.0494 7.21015C10.3299 7.17954 10.4412 7.28594 10.4237 7.57084C10.407 7.84258 10.4802 8.1414 10.3915 8.3815C10.291 8.65351 9.93926 8.54605 9.70756 8.63917C8.96784 8.93648 8.50506 9.48024 8.37256 10.2609C8.31529 10.5982 8.18938 10.6844 7.89992 10.6613C7.78864 10.6524 7.67621 10.6584 7.53272 10.6574Z" fill="black"/>
</g>
<defs>
<clipPath id="clip0_2760_8123">
<rect width="25" height="27" fill="white"/>
</clipPath>
</defs>
</svg>
