<svg width="409" height="461" viewBox="0 0 409 461" fill="none" xmlns="http://www.w3.org/2000/svg">
<path d="M217.175 223.281C207.39 179.247 198.155 152.019 189.704 143.912C182.22 136.734 172.738 134.683 163.938 133.973C154.444 133.208 144.155 139.576 133.067 149.774C100.375 179.843 89.774 232.643 88.6726 253.755C88.2455 261.943 96.0539 270.186 106.072 279.69C135.053 307.185 179.262 305.885 199.044 306.584C202.709 306.714 182.746 313.267 148.073 317.334C110.51 321.739 85.8978 314.019 75.8742 309.629C61.9762 303.543 53.3964 292.52 51.4478 283.01C49.663 274.299 57.23 265.335 63.3935 257.403C72.8358 245.251 92.4639 241.666 123.832 241.274C148.957 240.96 172.601 252.172 187.946 262.915C194.368 267.412 195.952 272.611 197.032 276.174C198.804 282.018 193.22 298.335 181.089 325.276C168.444 353.358 143.509 371.471 123.244 382.94C114.562 387.854 107.523 387.769 101.656 387.081C90.6176 385.786 79.9145 376.194 68.2916 359.853C52.437 337.563 53.3645 304.625 60.7248 267.003C65.2114 244.07 77.1716 214.703 87.4654 191.537C105.239 151.538 124.267 130.15 137.472 119.047C164.393 96.4107 208.576 99.375 228.056 102.182C232.173 102.775 235.115 105.687 233.765 109.388C229.81 120.228 202.878 133.169 172.383 150.786C150.085 163.667 139.898 176.991 134.258 185.972C120.441 207.975 128.206 238.785 130.668 244.245C131.908 246.993 133.83 249.355 137.7 251.139C146.975 255.415 170.408 254.703 211.901 249.455C270.086 242.097 308.188 222.603 319.641 216.969C324.928 214.369 328.648 211.335 328.532 209.196C328.228 203.629 298.233 200.375 254.744 190.706C182.533 174.651 170.98 153.089 163.535 146.851C158.072 142.274 168.767 185.601 175.825 234.046C181.766 274.822 177.303 300.177 173.432 310.402C171.739 314.874 168.862 317.132 165.854 317.868C152.299 321.186 132.58 302.094 117.314 287.755C111.434 282.232 110.923 269.953 111.616 256.736C113.098 228.513 173.882 209.599 212.632 204.394C228.005 202.329 239.722 210.901 248.527 216.879C257.994 223.306 268.633 254.798 272.599 268.11C276.177 280.119 252.102 206.633 240.495 162.371C228.888 118.109 222.597 80.715 219.356 58.306C216.116 35.8969 216.116 29.6063 217.164 25.1425C218.213 20.6787 220.31 18.2324 223.137 16.7974C235.518 10.5144 257.291 20.6046 289.411 38.2215C309.025 48.979 321.966 67.5195 332.005 85.8195C343.035 105.925 346.715 133.116 348.658 166.888C351.08 208.979 344.999 247.141 337.607 272.521C331.989 291.81 312.964 308.258 289.189 324.831C254.671 348.894 220.86 340.134 189.577 333.102C175.366 329.908 163.228 320.055 147.756 303.73C122.957 277.565 109.557 240.035 102.143 211.484C98.9447 199.165 99.6228 190.621 100.496 185.426C101.37 180.232 103.118 178.484 107.163 176.711C117.164 172.326 136.562 174.534 168.555 184.717C188.231 190.979 213.828 202.588 235.539 213.236C274.808 232.497 296.549 246.209 306.763 248.857C316.015 251.255 332.842 246.961 352.593 240.803C365.439 236.798 370.003 225.442 374.234 214.02C380.345 197.523 375.351 178.876 368.844 164.087C355.028 132.689 318.333 107.996 287.516 89.5367C282.439 86.4961 279.361 86.3278 276.523 86.1425C273.685 85.9572 270.889 86.3067 266.653 91.9037C262.417 97.5006 256.825 108.335 242.761 149.912C228.697 191.489 206.331 263.482 194.459 306.336C182.587 349.189 181.888 360.722 183.8 369.983C190.306 401.508 219.928 415.579 226.166 428.69C227.407 431.299 226.706 434.324 224.784 436.988C213.944 452.008 173.607 442.182 131.711 433.043C109.875 428.279 87.7194 419.71 68.5087 410.157C32.3991 392.202 13.884 372.657 6.65614 362.093C0.108295 352.523 0.423865 335.994 1.82707 318.017C4.28426 286.537 46.1843 258.685 78.7123 237.213C120.415 209.685 154.279 198.945 165.727 195.943C175.801 193.301 184.663 197.843 191.88 203.816C201.217 211.544 210.747 243.159 222.915 287.384C232.507 322.246 231.302 342.909 229.37 352.234C224.194 377.202 203.789 389.178 202.698 389.729C194.09 394.075 244.085 376.173 293.07 370.348C315.079 367.731 331.571 368.368 340.906 365.572C350.242 362.776 351.989 357.185 343.453 329.666C334.918 302.147 316.046 252.87 305.625 222.243C295.204 191.616 293.806 181.132 295.358 181.847C308.354 187.835 310.676 214.735 321.055 234.766C351.008 292.58 347.795 329.099 343.925 344.307C339.44 361.928 318.969 380.61 291.418 398.143C261.363 417.268 214.951 410.03 178.478 400.552C153.536 394.07 136.752 367.436 126.522 345.054C113.701 317.002 118.325 289.767 133.57 243.165C142.054 217.231 163.482 175.773 174.607 151.892C187.775 123.626 193.495 116.351 199.129 111.062C208.182 102.561 232.552 108.885 287.214 124.898C299.938 128.625 307.044 132.84 312.223 134.291C317.401 135.742 320.197 135.043 319.191 130.489C309.617 87.153 255.766 55.3196 241.411 47.1492C221.618 35.8838 201.713 55.5525 185.462 64.2207C179.235 67.5426 175.534 72.5181 173.241 79.2006C167.168 96.9019 179.717 116.934 201.618 156.563C218.78 187.616 251.826 238.828 270.312 269.841C302.02 323.04 302.607 340.802 301.029 346.79C300.239 349.786 297.703 352.08 294.177 353.69C286.235 357.315 272.678 354.622 237.784 339.562C210.403 327.746 165.494 302.835 139.294 288.147C106.725 269.887 95.7998 256.185 86.0991 242.619C70.5759 220.91 83.7056 187.719 96.8587 158.05C120.704 104.265 144.42 67.6572 150.414 57.2681C160.122 40.4416 157.509 29.151 158.219 24.2212C158.573 21.7631 157.53 19.2914 155.598 18.0312C153.665 16.7709 150.52 16.7709 147.152 17.8194C131.579 22.6677 121.926 56.1032 112.898 94.4453C105.887 124.221 101.031 145.93 102.435 153.333C103.064 156.651 105.236 158.638 139.162 185.929C173.088 213.221 239.139 265.642 274.389 293.871C312.324 324.25 316.353 329.862 317.253 335.845C320.603 358.114 256.581 357.407 210.117 359.705C159.52 362.208 118.474 354.992 94.1476 347.42C63.2113 337.791 46.3961 314.802 30.8391 291.679C16.2056 269.927 18.7768 241.031 24.5802 218.95C30.507 196.4 62.0486 170.828 101.248 138.983C124.199 120.338 156.874 101.197 179.373 87.9587C213.423 67.9246 242.782 53.9322 265.742 37.7132C273.635 32.1373 269.83 27.0859 266.293 24.2318C243.998 6.24291 196.863 -1.23249 173.119 1.57392C168.646 2.10264 166.045 5.07929 165.653 8.25637C165.261 11.4334 167.358 15.6272 197.445 36.6595C227.532 57.6918 285.546 95.4355 316.655 116.277C350.754 139.122 356.225 148.736 363.617 165.252C374.586 189.759 374.631 232.548 370.067 278.377C366.811 311.07 353.472 329.12 341.537 347.389C321.521 378.025 302.638 398.339 293.849 408.701C269.052 437.934 260.637 450.231 245.652 455.198C239.442 457.256 228.199 449.606 208.682 435.034C179.462 413.218 162.158 386.096 153.167 370.952C145.212 357.552 144.812 337.074 145.331 316.094C145.94 291.449 165.579 278.054 175.132 271.483C179.596 268.412 189.926 271.626 208.025 280.389C238.262 295.03 259.462 319.229 275.125 332.965C304.315 358.563 324.772 361.993 345.243 360.616C349.651 360.319 351.629 358.159 354.282 356.041C360.221 351.299 366.466 329.375 369.834 290.996C371.539 271.562 367.26 251.917 360.927 229.953C338.748 153.029 322.421 140.381 311.121 131.178C308.149 128.757 304.439 126.952 300.192 126.571C291.033 125.749 275.527 137.066 254.924 153.963C210.16 190.673 191.462 231.711 177.694 238.965C170.061 242.988 160.739 243.752 149.662 243.583C113.51 243.03 70.5421 201.931 50.5953 182.032C44.7752 176.226 44.5534 168.593 44.9029 161.561C45.9035 141.429 59.3162 124.178 107.709 80.3073C138.033 52.8165 158.145 56.6751 176.858 57.5329C181.896 57.7639 186.717 59.8098 208.983 70.8396C231.249 81.8693 270.741 102.489 293.88 115.557C323.384 132.219 334.314 145.199 346.112 160.153C370.962 191.651 371.073 221.396 368.107 244.202C366.643 255.466 357.369 265.939 345.762 277.032C332.364 289.837 309.787 298.769 271.858 309.513C246.641 316.656 207.368 319.208 168.163 320.675C128.958 322.142 90.5153 320.394 68.6147 319.144C42.4901 317.654 35.4035 315.427 30.119 312.965C16.4521 306.597 14.5617 274.242 15.4142 221.926C15.9389 189.727 27.5666 164.071 37.0661 145.056C53.8807 111.399 64.6538 104.702 69.0541 99.4121C71.0668 96.9926 73.8039 96.2192 75.2389 98.4749C85.5894 114.746 70.0337 161.18 65.0351 191.622C62.7135 205.76 68.5404 217.245 83.0703 240.713C95.5531 260.875 119.617 297.032 134.131 318.202C162.103 359.002 193.453 368.347 208.819 372.943C212.786 374.129 217.09 373.663 221.872 372.09C226.653 370.518 231.895 367.372 252.594 336.046C273.293 304.72 309.289 245.309 329.755 206.141C358.151 151.795 358.724 123.468 359.609 105.862C361.191 74.3613 349.617 51.147 342.68 39.5506C341.054 36.8318 355.452 75.7693 371.682 123.584C382.372 155.08 384.501 183.25 382.219 200.639C381.4 206.884 374.663 216.504 361.139 234.433C340.702 261.528 316.109 282.862 298.498 296.084C272.957 315.259 244.159 313.637 213.405 312.081C198.331 311.318 186.516 301.332 175.777 292.367C162.772 281.51 158.928 267.803 159.453 259.526C159.963 251.461 177.483 231.213 209.518 200.385C240.56 170.513 266.896 159.411 278.683 154.482C306.381 142.897 326.551 141.757 339.63 133.126C342.315 131.355 340.742 127.672 339.159 124.834C332.142 112.255 305.964 96.325 274.129 82.113C241.651 67.6135 216.9 82.4094 188.724 99.0891C157.896 117.339 142.736 146.258 134.979 159.988C127.473 173.273 128.915 185.124 130.848 191.288C132.803 197.523 147.512 209.768 169.535 226.866C186.677 240.175 224.302 255.984 271.212 277.668C298.676 290.363 309.978 300.908 317.724 308.475C326.013 316.57 329.781 328.061 329.612 339.34C329.481 348.036 321.013 354.918 310.798 361.087C301.817 366.512 282.273 370.454 242.041 376.268C179.561 385.297 138.479 381.098 133.199 370.407C122.411 348.559 123.631 305.091 123.801 262.757C123.865 246.625 125.717 241.391 127.311 241.136C141.277 238.909 122.667 288.666 94.0735 346.827C85.0648 365.152 74.6087 380.632 71.7333 392.863C69.0093 404.451 82.2973 412.116 88.6303 415.823C105.397 425.636 129.911 406.175 139.659 399.112C145.342 394.994 145.161 387.102 144.462 380.425C143.381 370.096 127.295 340.367 104.722 301.914C92.8824 281.745 86.2263 274.496 82.1807 269.561C78.2491 264.765 71.4104 263.884 65.4269 263.699C58.3757 263.481 53.7459 270.556 51.1037 276.54C36.9042 308.696 53.3645 369.702 58.2944 384.375C63.9312 401.152 85.0082 416.617 105.368 427.647C130.158 441.077 152.807 428.415 180.363 417.131C201.262 408.573 219.886 387.558 235.311 371.418C240.951 365.516 243.28 356.062 245.753 346.902C247.778 339.398 244.72 332.742 242.258 327.458C239.906 322.409 234.151 319.314 227.988 317.371C225.062 316.448 222.174 317.175 219.161 318.927C203.06 328.293 199.193 356.952 196.704 374.664C194.448 390.718 235.56 431.232 270.561 455.176C281.927 462.952 298.995 458.036 319.906 453.837C352.906 447.21 379.471 428.447 393.932 416.464C403.399 408.619 405.671 399.472 407.085 391.725C408.476 384.104 404.993 374.775 396.405 358.27C380.707 328.104 350.411 296.862 326.419 272.865C315.683 262.126 309.692 260.358 303.708 259.293C300.57 258.735 297.026 260.326 293.827 263.837C286.29 272.11 284.603 302.126 286.171 345.456C287.577 384.351 298 404.703 301.516 408.06C303.183 409.653 306.43 408.272 310.316 404.243C332.93 380.798 335.405 334.712 334.743 308.242C334.651 304.56 330.893 303.788 329.458 304.646C321.097 309.645 333.287 324.906 344.74 349.899C356.057 374.594 356.966 387.738 354.695 394.621C353.673 397.719 347.88 396.962 344.142 396.263C340.403 395.564 337.608 394.166 335.468 392.397C326.105 384.657 332.927 353.372 352.831 302.359C361.857 279.227 369.993 260.792 377.411 252.066C378.832 250.394 381.981 252.214 383.94 255.37C393.574 270.888 393.312 288.835 389.834 325.117C384.066 385.268 363.702 396.538 355.765 406.636C351.613 411.917 344.301 416.003 336.549 419.53C324.74 424.901 302.045 416.427 260.394 391.953C250.464 386.118 246.574 377.687 244.228 369.544C239.427 352.876 243.64 340.156 246.626 334.172C250.284 326.845 259.832 319.695 272.324 313.166C285.774 306.136 304.979 316.063 322.596 328.559C338.972 340.176 348.103 358.042 353.927 374.076C356.509 381.182 355.908 386.965 354.684 391.418C352.449 399.555 344.999 405.053 336.035 410.687C324.187 418.133 303.782 420.25 282.284 420.79C265.481 421.212 246.944 410.083 226.674 398.286C210.823 389.06 200.294 370.941 188.841 351.042C178.419 332.935 173.426 305.705 169.72 265.955C165.054 215.921 170.906 179.935 177.933 166.369C198.823 126.037 272.16 133.645 286.139 130.802C289.51 130.116 293.001 129.049 295.501 127.111C298 125.173 299.398 122.377 298.895 119.539C297.785 113.277 285.736 104.384 269.02 91.0036C250.773 76.3979 215.999 59.9475 172.659 41.2609C116.741 17.1518 100.354 17.83 95.7733 20.8006C66.1395 40.0197 84.4576 102.129 84.6112 122.769C84.7564 142.289 106.634 150.187 118.458 156.711C137.368 167.144 155.328 186.829 164.022 203.62C169.603 214.398 168.46 224.669 168.11 230.647C166.713 254.545 132.601 288.433 112.919 302.152C101.446 310.15 84.8811 307.304 69.8484 302.205C49.3764 295.261 33.688 262.952 26.9207 246.109C22.8462 235.967 21.255 224.743 22.4782 216.281C24.286 203.775 53.5551 198.627 116.811 190.473C185.171 181.66 199.807 185.538 212.542 181.111C223.466 177.313 235.475 171.77 250.466 165.067C274.29 154.412 284.222 143.176 288.802 137.368C291.088 134.468 292.684 131.209 293.234 141.471C295.058 175.449 291.667 204.875 290.608 218.754C287.686 257.042 286.732 271.213 281.272 281.676C279.329 283.286 276.883 283.985 274.399 284.52C271.916 285.054 269.47 285.404 262.713 282.587" stroke="white" stroke-width="2" stroke-linecap="round"/>
</svg>
