<svg width="678" height="729" viewBox="0 0 678 729" fill="none" xmlns="http://www.w3.org/2000/svg">
<path d="M20.3661 728.417C8.24275 728.152 4.44772 727.758 3.93217 726.715C3.60376 726.051 3.20311 723.455 2.22796 715.676C1.84313 712.606 1.17292 708.229 0.738582 705.948C-0.293731 700.527 -0.26482 699.162 0.957526 695.614C2.71797 690.504 5.21552 678.295 5.26614 674.552C5.27999 673.535 4.7883 670.773 4.12286 668.13C2.61056 662.122 2.3598 659.057 3.03179 654.792C3.3181 652.974 3.92506 647.249 4.38064 642.068C4.83611 636.888 5.46011 629.902 5.76728 626.545L6.32587 620.44L12.0359 609.801C15.1765 603.949 18.0606 598.297 18.4452 597.242C18.9751 595.787 19.1393 594.587 19.1231 592.284C19.082 586.45 17.6735 581.583 13.3186 572.225C9.31876 563.631 8.165 560.089 7.9367 555.698C7.5805 548.851 9.60002 545.019 16.4949 539.456C18.2596 538.032 20.0192 536.415 20.405 535.862C20.8567 535.215 21.6074 534.723 22.5139 534.482C23.5825 534.196 24.2541 533.685 25.3032 532.358C26.251 531.159 26.9312 530.61 27.4691 530.61C28.3676 530.61 29.008 529.529 29.6097 526.998C30.0548 525.125 29.796 524.201 28.0627 521.472C26.6102 519.185 25.7475 516.585 25.4803 513.689C25.1383 509.981 24.1836 506.63 21.7124 500.465C18.558 492.594 17.5681 488.711 16.7241 480.898C16.0916 475.043 16.1508 470.655 16.8833 469.086C18.3392 465.967 24.1689 460.49 26.0324 460.49C27.358 460.49 28.4694 457.531 28.1064 454.968C27.9303 453.723 27.5772 453.076 26.4302 451.895C25.631 451.072 24.977 450.099 24.977 449.731C24.977 448.777 25.8142 448.164 26.7709 448.419C28.6635 448.922 28.5387 445.077 26.5776 442.463C25.7249 441.326 25.6184 440.933 25.7035 439.233C25.7884 437.535 25.9067 437.243 26.6654 436.86C27.9506 436.21 28.3791 434.745 28.1986 431.617C28.0734 429.445 27.8349 428.502 26.9767 426.785C26.2578 425.346 25.8522 423.971 25.7316 422.561C25.5743 420.723 25.6606 420.276 26.449 418.851C27.295 417.322 27.3621 416.874 27.6464 410.865C28.2152 398.841 28.5615 396.171 30.2847 390.519C31.6709 385.972 33.3128 382.79 38.0662 375.437C43.4391 367.126 44.1657 366.298 46.0848 366.305C49.8726 366.318 54.1438 368.134 56.7559 370.841C59.9052 374.105 61.8972 374.204 64.7701 371.24C67.4671 368.457 68.8674 365.437 67.7881 364.73C67.607 364.611 67.4589 364.286 67.4589 364.008C67.4589 363.613 67.7462 363.549 68.7585 363.721C70.3912 363.997 72.7423 362.884 77.6676 359.5C83.7448 355.325 89.7985 352.373 98.313 349.432C104.073 347.442 107.588 346.514 117.018 344.493C127.581 342.23 131.677 340.752 131.677 339.203C131.677 339.008 131.365 338.55 130.983 338.184C128.468 335.775 126.67 325.298 127.699 319.042C128.602 313.548 131.577 305.616 133.767 302.86C134.431 302.025 135.054 300.926 135.152 300.418C135.639 297.884 136.066 296.808 137.11 295.483C138.446 293.789 139.034 291.808 138.74 289.983C138.625 289.267 137.878 287.467 137.08 285.985C135.551 283.146 135.368 282.441 136.04 281.994C136.267 281.843 138.564 281.766 141.145 281.821C144.041 281.884 145.837 281.793 145.837 281.582C145.837 281.006 143.932 279.508 142.89 279.265C142.335 279.136 141.387 279.233 140.727 279.486C138.773 280.234 138.411 279.717 138.516 276.336C138.564 274.779 138.519 273.505 138.416 273.505C138.313 273.505 137.683 273.898 137.017 274.377C135.756 275.285 134.641 275.519 134.641 274.877C134.641 274.673 135.043 273.946 135.535 273.263C136.273 272.238 136.432 271.655 136.441 269.942C136.451 268.091 136.351 267.773 135.528 267.022C132.911 264.635 127.299 267.353 125.387 271.933C123.743 275.871 124.404 278.021 127.69 279.415C128.848 279.906 130.015 280.661 130.282 281.093C130.747 281.842 130.715 281.902 129.587 282.401C128.72 282.785 127.128 282.924 123.619 282.924C118.256 282.924 118.586 283.135 119.2 280.1C119.644 277.91 119.261 276.239 117.984 274.789C117.218 273.92 116.965 273.833 115.807 274.04C114.517 274.271 114.498 274.259 114.607 273.279C114.717 272.286 114.714 272.284 112.806 272.284C110.493 272.284 110.24 272.007 108.304 267.361C106.346 262.66 106.333 262.424 107.885 259.643C108.61 258.345 109.66 256.319 110.219 255.139C111.189 253.091 112.556 251.528 113.377 251.528C113.587 251.528 114.864 250.8 116.214 249.911C119.622 247.667 121.114 247.015 122.686 247.081C123.716 247.125 124.461 246.857 125.8 245.962C129.355 243.586 130.389 243.098 132.56 242.773C136.868 242.126 138.556 240.395 142.223 232.864L144.601 227.98L140.44 232.577C138.151 235.105 135.76 237.513 135.128 237.927C134.174 238.551 132.697 238.823 126.488 239.517C122.368 239.978 118.005 240.593 116.792 240.883C113.505 241.67 113.211 241.624 113.449 240.364C113.62 239.459 113.55 239.318 112.932 239.318C111.021 239.318 109.857 235.97 110.611 232.642C111.154 230.245 113.57 227.505 116.645 225.798C118.87 224.563 118.995 224.429 118.948 223.342C118.847 221.041 115.571 217.611 110.717 214.725C107.266 212.674 106.219 211.761 105.279 209.991C104.701 208.901 104.36 208.619 103.624 208.619C102.936 208.619 102.697 208.45 102.697 207.964C102.697 206.628 101.675 204.818 98.235 200.064C96.2951 197.382 94.3534 194.352 93.9201 193.33C93.4869 192.308 92.4164 190.345 91.5413 188.969C89.18 185.255 88.7857 184.276 88.5274 181.486C88.3833 179.929 88.0849 178.704 87.7555 178.319C86.8775 177.291 87.1175 176.322 88.5778 174.997C90.2491 173.482 94.2341 171.28 97.0983 170.289C101.991 168.597 113.367 166.378 121.468 165.536C125.551 165.111 126.667 164.257 125.101 162.756C122.507 160.268 97.6211 163.964 90.2912 167.925C87.4539 169.458 86.5783 170.827 85.9002 174.788C85.277 178.429 84.3668 179.247 83.4981 176.947C81.8965 172.707 82.5139 170.579 86.1626 167.763C87.5586 166.685 89.041 165.616 89.4569 165.387C90.9527 164.563 96.6842 162.488 100.72 161.308C115.582 156.966 118.482 156.998 141.062 161.754C146.273 162.852 149.767 163.397 152.259 163.501C157.558 163.723 158.036 162.936 153.926 160.759C150.631 159.015 149.789 158.198 149.789 156.742C149.789 154.414 152.611 151.713 155.553 151.224C156.64 151.044 157.51 151.279 160.535 152.571C165.025 154.489 165.844 154.931 166.995 156.063C167.791 156.847 167.858 157.068 167.551 157.93C167.065 159.299 165.113 161.334 163.589 162.062C162.882 162.4 162.304 162.793 162.304 162.936C162.304 163.079 163.6 163.383 165.185 163.612C168.299 164.062 171.651 164.873 172.587 165.403C173.563 165.956 173.267 166.706 171.971 166.963C171.311 167.095 167.717 167.131 163.985 167.045C157.128 166.887 156.047 166.939 156.047 167.425C156.047 167.714 158.83 168.635 161.48 169.221C162.386 169.421 167.35 171.056 172.513 172.853C185.685 177.44 191.519 178.717 201.987 179.302C210.912 179.801 232.721 178.774 253.854 176.86C267.145 175.656 273.313 174.693 289.75 171.257C315.658 165.84 332.764 161.452 351.497 155.415C355.3 154.189 362.785 151.854 368.127 150.225C382.286 145.91 390.053 142.882 392.04 140.905C392.43 140.517 393.618 139.959 394.681 139.666C400.101 138.172 406.208 133.92 413.311 126.695C416.556 123.394 418.657 120.627 418.964 119.249C419.243 117.999 420.082 117.782 422.013 118.463C425.057 119.535 430.864 123.582 430.561 124.419C430.465 124.684 430.528 125.295 430.701 125.776C430.958 126.493 430.882 126.78 430.28 127.359C429.876 127.748 429.295 128.312 428.99 128.611C428.685 128.91 427.129 131.687 425.532 134.782C423.935 137.877 421.918 141.411 421.049 142.636C420.179 143.86 419.536 144.933 419.618 145.02C419.915 145.335 421.76 144.075 423.57 142.322C426.872 139.126 431.027 132.995 431.027 131.319C431.027 130.507 431.592 130.127 432.799 130.127C436.521 130.127 433.56 137.276 422.647 154.63L421.389 156.631L422.912 158.519C426.133 162.514 429.793 165.013 432.423 165.013C435.428 165.013 435.673 163.21 433.393 157.87C431.763 154.054 431.888 153.677 434.695 153.946C437.077 154.175 439.856 155.715 442.811 158.443C444.027 159.567 445.497 160.809 446.078 161.205C446.659 161.6 447.229 162.241 447.345 162.629C447.461 163.017 448.137 164.213 448.848 165.287C450.145 167.249 451.113 169.949 451.117 171.617C451.118 172.11 451.701 174.314 452.412 176.515C453.436 179.683 453.921 180.703 454.741 181.412L455.776 182.307L455.132 184.102C453.677 188.157 448.09 195.266 444.127 198.106L442.572 199.219L443.55 197.029C445.506 192.65 444.483 192.18 440.024 195.412C438.626 196.424 437.284 196.724 437.284 196.024C437.284 195.812 437.823 194.552 438.482 193.223C439.141 191.895 439.584 190.706 439.467 190.582C439.185 190.283 433.171 194.608 431.018 196.658C430.084 197.548 429.191 198.635 429.033 199.076C428.598 200.286 426.395 199.972 425.112 198.517C423.97 197.222 421.767 196.137 419.658 195.831L418.108 195.606L418.33 196.994C418.652 199.012 418.144 199.332 415.685 198.658C410.769 197.313 401.634 193.222 396.639 190.13C391.978 187.244 391.637 187.311 393.854 190.682C395.418 193.059 397.876 196.107 401.363 199.993C404.124 203.071 404.126 203.547 401.38 203.936C399.234 204.24 398.339 203.727 397.162 201.517C396.599 200.46 395.934 199.467 395.685 199.31C395.436 199.154 394.082 197.413 392.675 195.441C391.268 193.47 389.848 191.704 389.517 191.517C388.535 190.959 387.911 191.125 387.704 191.999C387.42 193.198 388.207 194.847 390.473 197.805C391.576 199.244 392.434 200.578 392.379 200.77C392.152 201.578 390.618 201.299 389.351 200.218C388.636 199.609 387.552 198.886 386.942 198.61C384.875 197.678 384.194 198.838 385.91 200.367C387.112 201.438 387.135 201.777 386.075 202.754C385.622 203.171 385.252 203.82 385.252 204.196C385.252 205.08 386.43 207.573 387.432 208.808C387.972 209.474 388.215 210.204 388.215 211.156C388.215 212.366 388.134 212.515 387.557 212.355C386.776 212.139 386.755 212.398 387.359 214.724C388.821 220.344 392.914 229.6 395.692 233.567C398.314 237.309 402.331 241.469 403.196 241.337C403.611 241.274 404.122 240.649 404.564 239.667C405.272 238.091 407.143 230.005 408.156 224.143C408.998 219.272 409.953 217.341 411.521 217.341C412.085 217.341 413.115 218.148 414.912 220.001C417.818 222.996 418.706 223.23 418.394 220.916C417.916 217.38 417.828 215.596 418.13 215.596C418.774 215.596 421.727 218.354 422.908 220.059C426.689 225.514 427.682 233.44 425.563 241.237C424.695 244.429 423.806 245.661 421.467 246.911C418.588 248.449 416.257 248.872 410.609 248.878C405.059 248.884 403.364 248.407 403.364 246.836C403.364 245.913 402.949 245.383 400.969 243.775C400.325 243.252 398.616 241.211 397.171 239.24C395.726 237.268 394.178 235.295 393.731 234.855L392.918 234.055L392.544 235.03C392.338 235.566 391.801 237.78 391.351 239.951C390.478 244.168 390.419 244.341 389.486 245.444C388.115 247.063 385.655 257.021 385.336 262.246C385.163 265.063 385.175 265.12 385.989 265.448C386.972 265.844 387.464 267.155 387.754 270.155C387.944 272.118 387.824 272.752 386.455 277.011C384.666 282.576 383.839 286.988 383.123 294.786C381.682 310.478 381.062 314.617 379.302 320.325C378.039 324.418 375.827 329.374 373.681 332.916C370.136 338.772 369.433 341.951 370.04 349.394C370.446 354.367 370.7 354.926 372.713 355.267C373.408 355.385 374.308 355.766 374.714 356.114C375.347 356.657 375.419 356.951 375.222 358.183C374.473 362.885 367.782 372.623 364 374.518C362.72 375.16 361.919 375.938 360.584 377.833C358.945 380.16 356.87 382.86 355.271 384.743C354.383 385.79 353.794 385.313 354.285 383.945C354.713 382.754 354.503 382.355 353.585 382.61C352.933 382.79 352.893 382.709 353.092 381.618C353.211 380.964 354.493 377.839 355.939 374.673C359.175 367.592 359.492 366.283 358.918 362.374C358.587 360.121 358.575 358.824 358.864 356.552C359.202 353.89 359.571 352.906 362.982 345.574C367.315 336.26 368.498 333.249 368.682 331.067L368.815 329.497L368.322 330.631C367.814 331.799 366.923 332.136 366.612 331.278C366.515 331.01 366.986 329.401 367.658 327.702C368.331 326.003 369.563 322.415 370.397 319.729C371.921 314.821 372.629 313.756 373.066 315.714C373.4 317.216 373.704 315.968 374.06 311.625C374.295 308.759 374.296 306.482 374.063 304.347C373.738 301.355 372.523 294.443 372.277 294.182C372.137 294.034 369.855 299.725 369.568 300.938C369.461 301.392 369.186 301.763 368.957 301.763C368.483 301.763 368.138 299.952 368.125 297.402C368.112 294.719 367.706 294.4 366.622 296.219C365.34 298.37 363.703 302.27 362.34 306.42C361.018 310.443 360.053 312.348 358.07 314.844C356.194 317.207 355.683 318.372 354.939 321.983C354.11 326.006 353.831 326.729 352.841 327.416C351.717 328.196 350.357 327.826 348.922 326.35C346.203 323.552 346.422 320.695 349.801 314.865C350.462 313.725 351.002 312.587 351.002 312.336C351.002 311.574 350.384 311.82 349.415 312.97C346.982 315.853 343.967 312.407 345.727 308.753L346.436 307.28L345.097 305.971C344.36 305.25 343.759 304.44 343.761 304.171C343.764 303.902 344.06 302.686 344.42 301.47C345.539 297.689 345.241 296.857 343.004 297.511C341.544 297.939 340.969 297.575 341.247 296.4C341.516 295.264 343.96 292.105 345.145 291.363C345.99 290.832 346.079 290.843 346.812 291.573C347.792 292.548 348.749 292.554 349.552 291.589C350.675 290.239 356.096 286.692 356.206 287.236C356.26 287.506 356.001 288.988 355.629 290.53C354.825 293.866 354.77 295.134 355.429 295.134C356.07 295.134 356.87 293.867 357.3 292.169C357.73 290.471 358.139 289.902 358.931 289.902C359.262 289.902 360 289.286 360.571 288.533C361.142 287.781 362.039 286.977 362.564 286.746C364.699 285.809 367.518 280.783 368.125 276.831C368.309 275.632 368.715 274.48 369.108 274.036C369.671 273.402 369.838 272.497 370.144 268.422C370.672 261.412 370.392 254.442 369.507 252.546C368.7 250.82 368.876 250.246 370.983 247.732C371.945 246.583 372.576 246.156 373.565 245.986C375.446 245.662 375.803 244.67 375.964 239.318C376.056 236.255 375.939 234.089 375.569 232.041C374.493 226.08 374.952 224.23 377.419 224.581L378.767 224.772L378.56 223.411C378.258 221.434 376.257 217.355 374.912 215.977C373.969 215.011 373.663 214.868 373.274 215.21C372.735 215.684 372.205 217.894 371.885 221.003C371.635 223.436 370.971 225.364 370.384 225.364C370.159 225.364 369.557 224.941 369.048 224.424C367.932 223.292 367.662 223.518 367.174 225.991C366.663 228.582 366.72 231.788 367.303 233.267C367.575 233.956 367.797 234.706 367.797 234.934C367.797 235.162 366.871 235.628 365.739 235.969C362.535 236.934 362.701 236.849 363.132 237.306C364.144 238.378 363.558 239.247 359.482 242.718C356.243 245.477 355.091 246.709 353.637 248.973C351.219 252.738 349.342 255.038 347.715 256.232L346.372 257.219L345.71 256.466C344.832 255.468 344.104 255.518 342.687 256.673C341.29 257.813 340.464 259.169 340.464 260.322C340.464 261.768 336.187 265.277 335.418 264.462C334.94 263.956 336.092 260.845 337.513 258.803C338.228 257.776 339.062 256.385 339.366 255.714C340.658 252.862 340.139 245.897 338.506 244.167C337.744 243.359 337.249 243.194 335.007 242.999C331.576 242.7 330.84 242.518 330.999 242.008C331.148 241.53 331.683 241.219 335.227 239.547C338.31 238.091 340.053 236.464 341.403 233.781C342.915 230.776 342.82 230.14 340.7 229.077C337.215 227.331 336.276 227.523 337.67 229.698C338.745 231.377 338.705 231.643 337.376 231.643C335.919 231.643 334.222 232.415 332.346 233.932C329.908 235.904 328.798 236.272 325.974 236.046C321.135 235.658 316.853 233.828 315.922 231.752C315.374 230.527 314.777 230.49 314.777 231.681C314.777 232.764 315.706 234.408 317.406 236.332C320.905 240.294 322.096 242.655 321.536 244.524C321.239 245.514 319.926 246.175 317.293 246.661C316.083 246.884 314.762 247.354 314.359 247.706C313.669 248.306 313.655 248.405 314.125 249.316C314.821 250.662 317.438 252.288 319.663 252.756C321.419 253.125 321.534 253.212 321.63 254.243C321.825 256.325 326.303 259.759 329.707 260.436C331.77 260.845 332.105 262.076 330.464 263.215C329.696 263.749 329.484 263.722 326.707 262.736C323.526 261.607 311.547 255.75 309.252 254.202L307.844 253.252L308.676 251.749C309.133 250.922 309.508 249.999 309.508 249.698C309.508 249.397 308.784 248.6 307.9 247.928C303.699 244.73 301.966 244.817 302.865 248.18C303.075 248.966 303.419 251.739 303.63 254.342L304.014 259.075L303.138 261.036C302.657 262.114 302.259 263.438 302.255 263.978C302.241 265.686 301.684 267.61 301.057 268.113C300.724 268.38 299.982 268.604 299.409 268.61C298.835 268.616 298.307 268.808 298.235 269.036C298.032 269.681 296.371 268.25 296.135 267.226C295.814 265.837 295.198 263.919 293.277 258.33C290.497 250.241 288.589 245.508 285.962 240.182C284.634 237.492 283.299 234.273 282.994 233.031C282.002 228.988 282.687 226.008 284.918 224.667C285.703 224.195 285.939 224.207 287.356 224.794C289.681 225.756 291.176 225.881 292.165 225.194C292.629 224.872 294.09 224.322 295.412 223.972C298.84 223.063 304.539 220.41 308.224 218.007C309.964 216.873 311.532 215.945 311.71 215.945C311.888 215.945 312.444 216.433 312.946 217.03C313.764 218.003 313.993 218.092 315.161 217.894C316.883 217.603 322.724 215.303 323.677 214.542L324.429 213.942L323.359 212.364C321.179 209.149 323.032 208.586 327.807 211.012C330.719 212.493 331.572 212.736 331.572 212.084C331.572 211.326 330.872 210.363 330.32 210.363C329.007 210.363 323.997 205.133 323.997 203.761C323.997 203.575 324.738 202.386 325.644 201.118C326.549 199.851 327.29 198.665 327.29 198.484C327.29 198.302 327.439 198.153 327.62 198.153C327.801 198.153 327.949 198.967 327.949 199.962C327.949 201.669 328.039 201.862 329.553 203.408C331.954 205.859 339.37 209.945 342.518 210.551C344.164 210.868 344.467 210.086 343.316 208.488C341.704 206.25 341.886 204.081 343.685 204.086C344.913 204.089 346.169 205.039 348.623 207.821L350.712 210.189L350.529 208.747C350.429 207.954 349.695 205.128 348.898 202.467C346.897 195.784 346.922 195.96 347.848 195.038C348.497 194.391 348.753 194.324 349.323 194.647C350.345 195.226 350.166 194.514 349.038 193.509C347.251 191.915 345.441 191.421 342.38 191.689C340.873 191.821 337.47 191.98 334.819 192.043C329.065 192.179 325.937 192.647 323.358 193.757C317.843 196.131 311.469 197.705 305.565 198.152C300.213 198.558 299.298 198.739 299.298 199.396C299.298 199.654 298.636 200.175 297.828 200.554C297.018 200.933 295.684 201.733 294.863 202.332C292.552 204.016 290.728 204.765 288.916 204.774C285.683 204.789 284.696 206.396 285.005 211.145C285.237 214.701 284.895 216.686 283.796 218.167C282.357 220.104 281.078 218.828 279.192 213.574C278.568 211.837 277.87 210.493 277.447 210.213C277.058 209.957 275.674 209.66 274.371 209.554C272.667 209.414 271.056 208.956 268.631 207.92C264.67 206.228 262.131 205.834 255.169 205.83C252.542 205.829 246.688 205.587 242.16 205.292C237.633 204.998 232.317 204.753 230.349 204.748C227.178 204.74 226.699 204.82 226.151 205.443C225.426 206.267 220.985 207.826 218.222 208.226C216.916 208.415 216.081 208.747 215.634 209.256C214.966 210.015 214.542 210.17 212.219 210.503C210.111 210.804 205.013 213.684 203.491 215.434C201.046 218.243 201.789 218.392 205.936 215.922C208.813 214.208 212.354 212.45 213.977 211.93L214.773 211.674L214.114 212.563C213.298 213.661 211.918 214.872 210.311 215.901C207.446 217.735 201.82 225.251 201.82 227.244C201.82 228.229 203.02 227.856 204.782 226.323C207.536 223.926 208.815 222.922 209.114 222.922C209.551 222.922 209.444 223.9 208.88 225.056C208.597 225.635 208.413 226.259 208.471 226.442C208.528 226.625 209.76 225.98 211.208 225.01C215.673 222.017 216.871 221.546 221.003 221.157C223.04 220.965 226.99 220.482 229.781 220.082C236.074 219.181 236.517 219.287 239.792 222.479C244.101 226.676 247.816 228.807 252.481 229.756C256.714 230.618 258.556 230.366 259.784 228.76C260.189 228.23 260.851 228.03 262.652 227.894C264.841 227.728 265.049 227.775 265.844 228.617C266.554 229.37 266.695 229.838 266.695 231.453C266.695 233.773 266.903 233.833 269.218 232.181C271.371 230.645 272.928 228.623 274.33 225.538C276.39 221.009 277.827 222.521 277.461 228.831C277.222 232.934 276.285 236.224 274.789 238.203C273.068 240.483 272.554 243.345 272.369 251.691C272.195 259.474 272.558 262.902 273.666 263.965C275.016 265.259 275.026 265.713 273.742 267.219C272.246 268.973 272.019 270.604 272.751 274.349C273.042 275.841 273.198 277.204 273.097 277.377C272.857 277.788 271.564 277.778 270.521 277.358C269.431 276.919 267.341 274.899 266.248 273.228C265.767 272.493 264.992 270.496 264.525 268.789C263.573 265.311 261.952 261.295 261.499 261.295C261.336 261.295 260.651 261.927 259.977 262.698C259.303 263.47 258.638 264.027 258.5 263.937C258.362 263.846 257.714 262.626 257.06 261.226C255.169 257.178 252.805 254.667 250.883 254.667C250.431 254.667 248.416 256.498 245.125 259.9C242.34 262.778 239.827 265.132 239.54 265.132C239.074 265.132 239.079 265.028 239.587 264.173C241.619 260.753 249.296 252.136 250.042 252.439C250.926 252.798 252.074 252.283 252.478 251.345C252.984 250.167 252.983 250.163 252.122 249.818C251.09 249.406 247.556 249.972 244.716 251.004C237.994 253.45 236.693 252.748 240.514 248.737C243.588 245.509 243.421 244.758 239.245 243.021C236.734 241.977 236.376 242.073 235.594 243.999C234.605 246.439 231.415 248.693 227.821 249.491C226.169 249.858 225.73 249.808 222.887 248.928C218.707 247.633 217.693 247.387 217.478 247.614C216.836 248.295 218.119 253.096 219.268 254.313C219.763 254.837 220.675 254.948 225.57 255.08C229.629 255.189 231.573 255.38 232.257 255.735C234.618 256.964 233.441 257.758 226.288 259.764C217.316 262.28 216.842 262.584 217.031 265.701C217.119 267.164 217.275 267.478 218.252 268.174C220.003 269.421 221.765 269.798 225.941 269.821C229.71 269.842 229.811 269.862 229.811 270.615C229.811 272.316 226.504 275.251 222.653 276.967C219.011 278.59 218.944 278.598 218.944 277.42C218.944 276.184 218.406 275.653 215.698 274.218C214.236 273.444 212.718 272.161 210.665 269.967C206.796 265.834 206.101 264.668 205.567 261.419C205.039 258.201 204.066 255.966 202.767 254.986C201.249 253.841 200.739 254.291 201.004 256.539C201.201 258.207 201.143 258.495 200.472 259.156C200.058 259.565 199.604 259.9 199.463 259.9C199.023 259.9 198.517 261.216 198.157 263.3C197.747 265.671 197.399 266.135 194.574 268.077C191.562 270.147 191.479 270.293 191.743 273.029L191.966 275.332L190.8 275.101C189.77 274.896 189.59 274.972 189.255 275.749C188.998 276.347 188.975 276.997 189.184 277.771C189.611 279.357 190.679 279.469 191.922 278.06C193.034 276.799 195.792 275.382 197.785 275.047C199.119 274.823 199.184 274.853 199.184 275.687C199.184 276.271 198.67 277.092 197.637 278.156L196.089 279.749L197 280.116C197.5 280.317 198.426 280.482 199.056 280.482C200.779 280.482 201.636 281.604 202.137 284.513C202.928 289.111 203.944 290.599 206.293 290.599C206.83 290.599 207.225 290.884 207.466 291.444C207.892 292.436 208.577 292.658 212.407 293.043C213.975 293.2 215.605 293.57 216.03 293.865C216.455 294.16 219.391 295.039 222.555 295.819C225.718 296.6 228.424 297.363 228.568 297.516C228.713 297.668 228.042 298.758 227.079 299.936C223.836 303.903 220.189 312.182 220.129 315.717C220.099 317.485 220.158 317.645 220.882 317.753C221.314 317.818 222.081 317.547 222.586 317.152L223.503 316.433L223.738 318.756C224.005 321.392 223.725 326.707 223.25 328.031C222.909 328.98 221.985 329.466 221.158 329.129C220.876 329.015 220.25 328.316 219.767 327.578C217.937 324.78 216.866 325.534 216.685 329.745C216.585 332.074 216.444 332.691 215.902 333.155C215.345 333.634 215.279 333.957 215.481 335.223C215.774 337.061 220.507 347.281 222.068 349.447C223.504 351.438 224.307 353.742 225.024 357.925C225.744 362.119 225.919 362.463 227.347 362.463C228.318 362.463 228.509 362.601 228.675 363.422C229.081 365.431 229.907 367.403 231.516 370.204C234.74 375.817 235.409 377.061 235.409 377.441C235.409 377.675 234.862 377.788 234.01 377.731C232.678 377.642 232.605 377.688 232.499 378.678C232.378 379.8 232.817 381.746 233.66 383.825L234.188 385.128L238.712 385.046L243.235 384.964L244.674 386.061C245.465 386.665 246.151 387.371 246.199 387.631C246.3 388.181 244.545 389.324 243.599 389.324C242.799 389.324 241.27 388.51 240.697 387.778C239.969 386.85 239.591 387.146 239.796 388.483C240.05 390.137 240.553 390.72 241.729 390.72C243.132 390.72 243.888 391.267 244.136 392.461C244.42 393.833 244.714 393.785 245.403 392.256C246.127 390.648 246.409 390.883 248.485 394.821C250.328 398.317 252.759 401.286 254.585 402.273C256.8 403.47 256.919 402.932 254.969 400.534C253.437 398.648 251.546 395.437 251.546 394.72C251.546 394.605 252.398 395.211 253.44 396.067C255.031 397.374 256.825 398.393 256.812 397.982C256.81 397.921 256.607 397.165 256.361 396.301C255.465 393.157 257.3 389.324 259.701 389.324C261.406 389.324 262.743 390.903 262.743 392.917C262.743 393.771 262.521 395.137 262.249 395.953C261.385 398.546 261.569 399.52 263.229 401.141C264.04 401.933 264.756 402.581 264.819 402.581C264.882 402.581 264.78 401.783 264.591 400.808C264.294 399.271 264.334 398.868 264.895 397.779C265.251 397.088 265.713 396.465 265.922 396.394C266.135 396.322 266.552 397.078 266.872 398.115C267.782 401.065 269.151 404.086 270.577 406.292C272.111 408.662 274.048 410.953 274.519 410.953C274.698 410.953 274.917 409.658 275.006 408.075C275.182 404.917 276.335 401.666 278.036 399.528C279.796 397.316 280.767 398.213 281.827 403.031C282.199 404.718 282.799 406.713 283.161 407.465C283.557 408.287 283.819 409.521 283.819 410.56C283.819 412.343 284.438 416.012 285.287 419.27C285.93 421.733 287.305 430.401 287.089 430.63C286.996 430.728 285.593 430.581 283.97 430.301C280.122 429.64 278.504 429.66 277.066 430.386C276.092 430.878 275.712 430.91 274.864 430.571C271.31 429.15 266.29 424.555 263.603 420.262C260.162 414.765 255.328 411.013 250.005 409.705C247.436 409.074 247.234 408.971 243.972 406.66C240.895 404.48 238.752 403.466 234.938 402.383C229.633 400.878 225.932 401.33 221.745 403.995C219.01 405.736 217.294 407.439 214.626 411.06C213.326 412.824 210.449 416.151 208.234 418.453C203.867 422.991 203.249 423.952 202.795 426.907C202.63 427.978 202.129 429.418 201.681 430.108C200.564 431.825 198.667 437.221 197.959 440.697C197.552 442.697 197.376 445.055 197.382 448.455C197.391 453.747 197.857 456.206 199.375 458.983C200.295 460.663 200.381 461.474 199.673 461.762C198.438 462.264 195.842 460.144 195.431 458.298C195.161 457.083 193.84 456.344 193.101 456.995C191.692 458.234 187.873 466.659 186.344 471.902C185.628 474.357 184.368 482.717 184.366 485.02C184.365 486.771 184.863 487.744 185.605 487.443C186.139 487.227 186.141 487.269 185.645 488.066C185.347 488.546 184.722 488.971 184.219 489.034C183.021 489.186 182.725 490.001 180.405 499.561C178.498 507.414 176.348 513.638 173.78 518.737C172.816 520.652 172.477 521.03 171.55 521.231C170.839 521.385 169.78 522.178 168.519 523.499C167.172 524.911 166.582 525.342 166.582 524.913C166.582 524.574 167.178 522.241 167.907 519.728C168.635 517.215 169.19 515.115 169.14 515.062C169.09 515.009 168.124 516.196 166.995 517.7C164.437 521.105 160.724 525.49 150.599 537.063C140.051 549.119 138.417 551.044 136.921 553.165C136.153 554.253 134.943 555.392 133.854 556.053C131.539 557.456 130.173 559.128 128.857 562.174C127.559 565.176 126.85 568.462 126.562 572.821C126.317 576.537 125.639 579.813 124.854 581.084C124.565 581.55 123.762 582.238 123.068 582.613C122.262 583.049 121.728 583.622 121.591 584.2C121.342 585.254 121.83 585.715 123.205 585.723C124.534 585.731 124.6 586.439 123.487 588.772C122.324 591.213 121.761 593.424 120.795 599.334C120.404 601.733 119.638 604.872 119.093 606.311C118.161 608.776 118.082 609.364 117.741 616.428C117.542 620.553 117.377 627.931 117.375 632.824C117.371 641.404 117.408 641.925 118.426 647.519C119.006 650.708 120.002 655.077 120.638 657.228C121.953 661.67 122.005 662.257 121.256 664.239C120.846 665.325 120.768 666.245 120.93 668.091C121.203 671.201 123.633 679.05 125.74 683.628C127.168 686.729 127.548 687.275 128.843 688.079C129.931 688.754 130.816 689.798 132.208 692.045C134.936 696.45 134.962 696.479 135.549 695.592L136.027 694.869L136.847 695.679C138.027 696.846 138.806 698.649 139.082 700.85C139.488 704.094 139.986 704.953 142.033 705.946C144.174 706.984 145.532 706.942 145.996 705.822C146.661 704.215 147.767 705 149.926 708.612C150.585 709.716 151.237 710.618 151.373 710.618C151.509 710.618 152.431 709.739 153.421 708.664C154.411 707.588 157.518 704.692 160.326 702.228C163.133 699.763 165.92 697.111 166.519 696.333C168.776 693.404 169.361 694.734 169.349 702.769C169.336 710.707 168.818 713.228 166.57 716.273C165.669 717.492 164.946 718.84 164.943 719.305C164.939 719.765 165.331 720.997 165.813 722.041C166.694 723.947 166.975 724.176 169.806 725.289C170.402 725.523 171.033 726 171.21 726.35C171.711 727.342 170.675 727.701 166.165 728.099C161.31 728.527 37.6804 728.798 20.3613 728.418L20.3661 728.417ZM125.684 574.649C125.808 573.725 125.502 573.663 124.499 574.407C123.499 575.149 123.58 575.677 124.673 575.544C125.322 575.465 125.609 575.211 125.684 574.649ZM216.884 253.879C216.698 253.289 214.762 252.125 214.261 252.302C213.647 252.518 215.484 254.312 216.319 254.312C216.73 254.312 216.964 254.134 216.884 253.879ZM130.865 165.211C131.479 164.735 131.47 164.704 130.608 164.288C129.894 163.943 129.614 163.946 129.208 164.303C128.821 164.643 128.789 164.864 129.074 165.227C129.55 165.835 130.065 165.831 130.865 165.211ZM187.985 728.319C186.948 727.923 186.814 727.721 186.655 726.309C186.558 725.445 186.215 724.318 185.892 723.805C185.322 722.896 185.324 722.859 185.992 722.481C186.369 722.267 187.766 722.044 189.096 721.984C190.426 721.925 191.685 721.764 191.894 721.627C192.103 721.491 192.767 720.565 193.371 719.57C194.906 717.04 196.23 715.752 199.913 713.206C203.401 710.795 207.642 706.615 208.564 704.68C209.065 703.628 208.798 703.813 206.638 706.019C205.26 707.427 203.944 708.51 203.715 708.426C203.407 708.312 203.326 707.391 203.405 704.906C203.507 701.708 203.478 701.54 202.837 701.54C202.454 701.54 200.982 702.69 199.437 704.196C195.196 708.33 187.477 713.456 186.248 712.956C185.955 712.838 185.542 712.123 185.328 711.369C185.009 710.239 185.035 709.701 185.476 708.298C186.535 704.937 189.102 701.758 209.813 678.152C213.439 674.019 216.111 670.518 215.849 670.241C215.488 669.858 213.861 671.301 208.865 676.433C205.915 679.464 203.189 682.049 202.807 682.177C201.049 682.769 200.609 680.266 202.064 677.947C203.68 675.371 207.843 670.546 210.707 667.927C215.904 663.177 219.838 660.798 224.327 659.689C227.934 658.798 230.53 657.745 235.114 655.313C239.895 652.777 242.576 651.113 245.395 648.933C246.632 647.976 248.305 646.997 249.112 646.758C249.923 646.518 250.869 645.933 251.227 645.452C252.764 643.382 253.558 637.633 252.859 633.643C252.628 632.324 250.903 625.516 249.027 618.512C245.394 604.952 244.626 602.856 240.87 596.222C239.717 594.187 238.252 591.423 237.614 590.08C236.976 588.737 236.138 587.285 235.752 586.853C234.947 585.952 233.759 585.806 233.759 586.608C233.759 586.905 234.935 589.779 236.372 592.995C240.998 603.351 242.252 607.16 246.901 624.965C250.2 637.603 250.161 637.372 249.208 638.531C248.271 639.673 248.061 639.67 247.527 638.504C247.291 637.989 246.356 637.11 245.451 636.553C243.473 635.336 242.405 634.335 241.835 633.163C241.601 632.683 240.131 626.822 238.566 620.138C235.485 606.973 234.247 603.016 232.618 601.134C231.325 599.64 230.347 599.765 229.196 601.573C228.062 603.353 226.584 608.173 226.021 611.926C225.751 613.725 225.317 616.013 225.058 617.01C224.798 618.007 224.343 621.908 224.048 625.678C223.496 632.724 223.19 634.37 222.479 634.126C221.795 633.892 220.86 629.384 221.031 627.145C221.229 624.537 220.842 624.815 219.243 628.43C217.735 631.84 216.46 636.018 216.007 639.037C215.704 641.051 215.538 641.375 214.135 642.683C213.288 643.473 212.415 644.573 212.195 645.128L211.795 646.137L210.784 644.838C209.391 643.047 208.742 643.309 205.451 646.992C201.713 651.175 199.452 654.644 199.578 656.001C199.725 657.587 200.533 657.472 202.58 655.574C204.645 653.66 206.609 652.427 206.975 652.815C207.678 653.559 203.862 658.461 199.943 661.85C198.709 662.917 196.736 664.375 195.559 665.09C192.713 666.82 185.918 674.117 182.885 678.7C180.082 682.935 177.693 685.692 176.062 686.574C175.389 686.937 174.758 687.235 174.66 687.235C174.193 687.235 174.642 685.94 176.485 681.974C179.002 676.555 179.811 673.981 180.893 667.933C181.368 665.28 182.44 660.178 183.276 656.595C184.539 651.177 184.8 649.496 184.825 646.594C184.862 642.469 184.63 641.839 181.676 638.028C180.569 636.599 179.37 634.724 179.011 633.861C178.653 632.997 177.486 630.211 176.419 627.669C171.697 616.423 170.107 611.502 167.032 598.632C165.865 593.742 164.766 589.59 164.591 589.405C164.387 589.188 164.273 591.025 164.273 594.545C164.273 604.302 162.873 600.843 160.488 585.196C157.901 568.213 157.859 563.112 160.158 544.38C160.794 539.199 161.39 534.472 161.483 533.875C161.684 532.579 162.807 531.349 163.306 531.877C163.968 532.579 164.312 540.539 164.103 550.31C163.782 565.276 164.09 568.591 166.878 580.206C168.135 585.444 169.85 593.419 170.689 597.928C172.372 606.975 173.005 609.441 173.645 609.441C174.22 609.441 174.734 607.95 174.998 605.521C175.287 602.861 174.975 601.195 174.145 600.965C173.305 600.732 173.321 600.206 174.195 599.279C174.806 598.632 175.142 598.564 176.809 598.748C178.703 598.958 178.722 598.951 178.824 598.008C178.881 597.485 178.807 595.658 178.658 593.949C178.312 589.958 178.494 589.125 179.681 589.257C181.599 589.47 181.913 588.377 180.412 586.713L179.426 585.62L180.127 584.418L180.828 583.216L180.159 581.938C179.061 579.843 178.27 574.288 178.913 573.186C179.059 572.935 179.571 572.875 180.307 573.021C181.13 573.184 181.554 573.111 181.758 572.77C181.917 572.505 182.051 570.404 182.056 568.102C182.068 563.307 182.314 562.529 184.174 561.424C184.879 561.005 185.592 560.405 185.758 560.09C186.157 559.335 185.505 558.508 184.51 558.508C183.677 558.508 182.715 557.675 182.715 556.953C182.715 556.701 183.065 556.252 183.493 555.955C184.566 555.21 184.708 553.896 184.718 544.589C184.727 535.512 184.36 531.581 183.133 527.634C182.33 525.048 182.265 524.382 182.25 518.564C182.232 511.912 182.584 508.388 183.885 502.168C185.44 494.734 186.19 493.788 188.419 496.452C189.652 497.926 189.691 497.945 189.48 496.962C188.928 494.397 188.749 492.923 188.989 492.923C189.584 492.923 191.221 494.738 191.963 496.22C192.4 497.093 192.865 497.807 192.996 497.807C193.127 497.807 193.275 495.808 193.326 493.364C193.404 489.589 193.498 488.904 193.953 488.812C194.754 488.649 197.083 490.943 199.988 494.756C201.414 496.627 203.34 498.779 204.269 499.538C206.548 501.401 209.504 502.804 210.744 502.611C211.859 502.438 212.002 502.589 212.187 504.135C212.366 505.636 211.877 506.478 210.434 507.153L209.225 507.718L212.669 508.011C214.563 508.172 216.488 508.495 216.946 508.727C218.86 509.699 217.777 511.135 214.659 511.761C212.434 512.208 211.494 512.854 210.908 514.339C210.655 514.982 210.159 515.724 209.806 515.989C208.821 516.729 208.402 517.833 208.402 519.685C208.402 523.204 212.182 529.219 215.775 531.419C218.872 533.315 230.27 538.039 231.085 537.764C231.431 537.648 232.135 537.926 232.798 538.441C234.102 539.454 235.561 540.221 236.824 540.556C237.616 540.767 237.711 540.695 237.711 539.889C237.711 539.21 237.921 538.93 238.554 538.761C240.709 538.189 250.345 539.789 254.489 541.407C258.396 542.934 260.384 543.183 264.444 542.657C266.523 542.387 268.235 541.971 268.759 541.607C269.353 541.195 269.938 541.076 270.606 541.231C271.667 541.478 272.289 540.783 272.289 539.352C272.289 537.89 273.347 537.648 281.51 537.247C290.739 536.792 294.683 536.051 294.683 534.772C294.683 534.132 292.248 531.69 291.03 531.108L289.712 530.479L291.869 529.273C293.054 528.61 294.025 527.86 294.025 527.606C294.025 526.9 292.018 526.421 286.78 525.875C281.78 525.355 278.072 524.775 265.538 522.557C255.505 520.782 245.728 519.437 242.853 519.437C240.785 519.437 240.6 519.384 241.178 518.957C241.535 518.693 242.917 518.151 244.248 517.752C246.817 516.984 248.384 516.113 248.094 515.616C247.753 515.032 242.982 513.145 239.134 512.073C236.315 511.287 234.131 510.926 231.218 510.764C228.099 510.591 227.071 510.41 226.645 509.958C226.131 509.413 226.154 509.317 226.988 508.498L227.881 507.621L226.127 506.736C224.461 505.895 220.257 502.525 220.257 502.03C220.257 501.902 221.617 501.912 223.279 502.053C224.94 502.193 226.429 502.224 226.587 502.12C226.746 502.017 226.831 501.599 226.777 501.193C226.618 499.999 227.923 499.566 231.783 499.532C236.936 499.486 238.667 499.152 239.42 498.057C239.877 497.391 240.459 497.085 241.595 496.911C242.447 496.78 243.547 496.427 244.038 496.126C244.857 495.625 245.089 495.632 246.814 496.207C249.555 497.123 256.074 500.326 264.274 504.787L271.466 508.701L282.663 508.496C290.446 508.355 294.572 508.138 296.195 507.788C300.305 506.899 301.646 506.001 302.078 503.849C302.3 502.739 304.823 499.901 305.587 499.901C305.796 499.901 306.429 500.195 306.994 500.554C309.003 501.832 312.467 501.761 312.467 500.441C312.467 499.04 299.807 494.133 287.621 490.81C284.17 489.868 278.234 488.064 274.43 486.799C265.177 483.723 263.641 483.5 258.773 484.53C254.336 485.469 251.087 486.961 248.7 489.157C246.076 491.571 245.503 491.724 242.312 490.87C240.227 490.311 239.073 490.197 237.208 490.364C234.852 490.575 234.703 490.538 230.595 488.749C225.27 486.43 224.428 485.805 224.685 484.358C225.046 482.316 223.17 481.255 217.034 480.032C208.555 478.341 200.787 477.827 199.303 478.857C198.496 479.417 194.961 479.616 194.237 479.141C194.081 479.04 194.315 478.574 194.756 478.107C195.906 476.888 195.756 476.528 194.096 476.528C193.291 476.528 192.545 476.377 192.438 476.193C192.114 475.637 191.832 471.431 192.056 470.486C192.171 470.001 192.654 469.114 193.13 468.516C195.539 465.483 199.755 465.049 205.931 467.198C210.367 468.741 212.145 469.033 213.958 468.516C216.222 467.87 216.162 466.85 213.684 463.885C212.869 462.91 211.873 462.113 211.257 461.944C210.444 461.72 210.212 461.469 210.212 460.807C210.212 460.025 210.324 459.964 211.612 460.051C213.152 460.154 213.137 460.18 213.025 457.623L212.954 455.986L214.547 455.878C216.013 455.779 216.149 455.694 216.245 454.807C216.451 452.902 214.521 449.336 210.062 443.386C206.382 438.475 205.329 436.597 205.299 434.891C205.277 433.672 205.383 433.428 205.972 433.339C206.477 433.263 207.191 433.842 208.549 435.432L210.427 437.631L210.188 433.968C209.776 427.676 209.905 425.741 210.847 424.039C211.304 423.212 212.41 421.886 213.305 421.093C215.021 419.571 218.639 417.137 218.851 417.362C218.92 417.435 218.748 418.428 218.469 419.568C217.88 421.975 217.429 428.221 217.746 429.561C218.054 430.86 219.388 430.834 219.87 429.52C221.164 425.996 221.724 423.072 221.891 418.971C222.112 413.533 222.257 413.447 225.661 416.752L228.102 419.122L227.587 420.179C227.304 420.76 226.428 422.074 225.64 423.099C224.853 424.124 224.208 425.115 224.208 425.302C224.208 426.445 226.856 429.907 228.171 430.484C228.841 430.779 229.148 431.158 229.148 431.691C229.148 432.973 228.442 434.771 227.472 435.96C226.267 437.435 225.981 439.601 226.458 443.633C226.956 447.847 227.986 451.089 229.345 452.717C230.637 454.265 230.669 454.098 229.809 450.299C229.018 446.803 228.972 443.564 229.664 440.017C231.015 433.088 233.827 429.644 237.177 430.815C239.292 431.554 239.494 432.782 238.054 436.147C236.323 440.19 235.025 449.51 236.095 450.211C236.294 450.34 236.88 450.114 237.399 449.708C237.918 449.302 238.468 448.969 238.621 448.969C238.773 448.969 239.401 449.519 240.016 450.19C241.568 451.887 242.275 451.77 244.241 449.491C246.556 446.807 247.365 444.413 247.191 440.758C247.077 438.38 246.89 437.639 245.958 435.874C245.354 434.73 244.58 433.228 244.238 432.536L243.616 431.279L244.994 428.471L246.372 425.663L245.47 424.032C244.835 422.884 244.629 422.141 244.776 421.523C245.032 420.443 244.553 419.788 243.01 419.105C241.472 418.425 240.37 417.323 239.794 415.89C239.351 414.788 239.452 413.386 239.973 413.386C240.446 413.386 243.157 415.395 244.025 416.389C247.967 420.901 252.66 426.645 253.068 427.459C253.69 428.697 253.446 429.433 252.416 429.433C251.072 429.433 250.726 430.234 251.169 432.323C251.381 433.324 251.93 435.001 252.389 436.051C253.477 438.534 253.963 442.644 253.711 447.225C253.483 451.354 253.066 453.283 251.628 456.846C250.369 459.964 250.09 461.308 250.523 462.165C250.909 462.928 254.513 465.798 256.897 467.241C260.604 469.485 264.488 470.418 279.678 472.713C284.641 473.462 288.396 473.37 290.284 472.453C290.853 472.176 291.964 471.999 292.754 472.059C294.112 472.162 294.187 472.224 294.164 473.214C294.15 473.79 293.936 475.238 293.688 476.432C293.44 477.625 293.346 478.717 293.478 478.857C293.867 479.269 299.307 479.052 300.534 478.576C301.104 478.354 301.263 478.046 301.207 477.27C301.153 476.511 301.388 476.028 302.138 475.359C304.721 473.058 306.79 464.056 305.394 461.197C304.649 459.67 302.432 457.851 300.35 457.057C299.316 456.662 296.219 455.788 293.469 455.114C288.217 453.826 285.411 452.614 284.777 451.36C284.569 450.947 283.979 448.816 283.468 446.625C282.956 444.433 282.01 441.54 281.365 440.195C280.72 438.85 280.193 437.606 280.193 437.429C280.193 436.737 281.276 437.172 282.866 438.504C284.182 439.605 284.81 439.899 285.852 439.899C287.632 439.899 288.549 439.13 291.075 435.517L293.2 432.477L293.859 436.705L294.518 440.933L295.787 438.467C297.36 435.414 298.691 433.781 300.328 432.896C301.022 432.521 303.769 431.829 306.432 431.359C312.646 430.261 312.895 430.413 310.079 433.585C307.907 436.032 305.891 439.702 306.415 440.256C306.581 440.433 307.675 440.621 308.846 440.674L310.976 440.772L311.189 442.349C311.306 443.217 311.772 445.179 312.225 446.709C312.678 448.24 313.151 450.002 313.277 450.626C313.519 451.822 314.523 452.806 315.503 452.806C315.825 452.806 316.088 452.58 316.088 452.303C316.088 451.608 317.232 450.825 319.202 450.169C322.485 449.078 322.423 449.158 322.294 446.189L322.181 443.562L323.062 443.658C323.93 443.753 323.938 443.735 323.601 442.437C323.412 441.713 322.991 440.402 322.664 439.524C322.053 437.881 322.207 436.94 323.031 437.275C323.67 437.535 325.43 440.345 326.464 442.755C327.407 444.956 328.912 452.422 328.924 454.964C328.936 457.473 328.483 458.302 325.145 461.877C321.964 465.282 321.124 466.696 321.656 467.743C322.086 468.586 323.385 469.814 325.179 471.074C327.109 472.428 328.042 473.726 327.873 474.821C327.748 475.633 327.727 475.624 327.103 474.515C326.675 473.752 326.249 473.404 325.821 473.468C325.248 473.553 325.178 473.861 325.162 476.354L325.145 479.145L323.75 479.252C322.227 479.369 321.357 480.246 321.357 481.664C321.357 482.572 321.893 482.668 322.82 481.924C323.172 481.643 323.668 481.412 323.923 481.412C324.537 481.412 324.317 483.852 323.529 485.773L322.958 487.168L324.665 485.341C325.603 484.335 326.503 483.599 326.664 483.704C327.499 484.251 326.189 487.742 323.349 492.542C322.622 493.771 321.939 495.341 321.831 496.031C321.522 498.014 321.431 498.159 320.365 498.385C319.318 498.607 318.723 499.381 318.723 500.521C318.723 501.93 316.648 505.446 313.944 508.617C312.393 510.437 310.695 512.713 310.17 513.676C309.645 514.638 307.944 516.988 306.39 518.899C304.836 520.809 303.615 522.536 303.677 522.736C303.739 522.936 304.258 523.149 304.83 523.209C305.977 523.329 306.867 524.372 306.867 525.594C306.867 526.016 306.403 527.59 305.835 529.092C305.267 530.593 304.373 533.548 303.849 535.659C302.139 542.545 300.982 545.442 298.542 548.951L297.062 551.078L299.208 553.111C301.537 555.318 302.568 557.216 302.579 559.319C302.583 560.053 302.225 562.329 301.783 564.378C300.21 571.676 299.815 577.091 299.134 600.721C297.905 643.352 298.041 640.59 297.101 642.05C295.9 643.917 297.008 660.969 298.792 668.066C302.233 681.754 302.333 682.036 304.711 684.756C305.484 685.64 306.286 686.707 306.492 687.126C306.949 688.053 306.981 689.229 306.553 689.387C306.381 689.451 306.142 690.154 306.023 690.949C305.82 692.302 305.89 692.481 307.112 693.74C308.159 694.819 308.465 695.43 308.658 696.829C308.957 699.007 309.85 701.197 311.142 702.925C313.36 705.892 318.173 721.01 318.625 726.428L318.824 728.817L263.695 728.632C230.671 728.521 207.727 728.312 206.473 728.109C203.891 727.691 203.503 727.347 204.252 726.137L204.81 725.234L202.736 726.346C201.595 726.958 199.921 727.678 199.015 727.948C196.696 728.638 189.455 728.881 187.983 728.318L187.985 728.319ZM247.592 432.101C247.592 431.386 246.299 429.786 245.721 429.786C245.334 429.786 245.268 430.011 245.442 430.744C245.567 431.27 245.823 431.898 246.012 432.139C246.471 432.726 247.592 432.699 247.592 432.101ZM422.485 726.615C422.031 724.127 421.463 722.98 420.529 722.666C419.22 722.225 419.052 720.824 419.278 712.243C419.481 704.504 420.111 694.905 420.779 689.335C421.656 682.023 421.503 673.78 420.31 664.043C418.926 652.758 418.705 648 418.697 629.333C418.687 606.33 419.121 598.902 421.477 581.715C424.579 559.079 424.604 558.703 424.587 533.922C424.572 511.647 424.441 508.664 422.967 496.944C421.852 488.07 421.385 482.551 421.631 481.158C421.819 480.099 421.936 479.985 422.646 480.173C423.638 480.437 423.669 479.961 422.937 475.79C422.371 472.565 419.908 462.898 419.555 462.511C419.431 462.376 417.652 463.509 415.6 465.029C413.549 466.548 410.512 468.517 408.852 469.404C407.191 470.292 405.723 471.199 405.59 471.422C405.456 471.645 405.344 472.477 405.341 473.273C405.335 475.231 403.811 476.706 401.439 477.051C400.464 477.193 399.557 477.565 399.219 477.96C398.304 479.032 397.12 478.755 393.864 476.707C388.828 473.54 388.508 473.413 384.171 472.874C379.735 472.323 374.857 471.119 371.849 469.832C369.815 468.961 367.435 467.563 363.071 464.674C360.072 462.688 358.054 462.176 356.762 463.073C356.056 463.563 355.94 463.903 355.947 465.468C355.952 466.471 356.296 468.944 356.712 470.964C357.129 472.984 357.411 474.822 357.34 475.049C357.258 475.311 356.847 475.385 356.221 475.253L355.233 475.043L355.468 476.4C355.597 477.146 356.199 479.248 356.805 481.071C358.722 486.834 358.117 486.646 355.128 480.548C354.094 478.437 352.833 476.24 352.327 475.664C350.968 474.117 350.612 473.191 350.321 470.438C350.019 467.585 349.159 465.024 348.503 465.024C347.918 465.024 347.312 467.347 346.09 474.269C344.715 482.062 344.451 484.413 344.208 491.094C343.783 502.751 345.104 510.043 349.499 520.295L350.386 522.366L348.799 520.5C345.003 516.039 344.36 514.584 342.574 506.409C340.798 498.284 340.376 493.613 340.789 486.653C341.276 478.448 341.518 476.188 341.909 476.186C342.109 476.186 342.689 475.487 343.199 474.633C344.024 473.249 344.124 472.763 344.119 470.185C344.116 468.594 343.739 463.891 343.283 459.736C342.363 451.355 341.661 448.504 338.759 441.36C336.804 436.547 335.192 432.026 335.192 431.358C335.192 431.056 335.515 430.904 336.065 430.945C336.775 430.999 336.989 430.818 337.206 429.986C337.543 428.694 337.038 424.713 335.965 420.197C334.747 415.069 334.488 411.567 334.906 405.894C335.103 403.208 335.372 400.887 335.503 400.737C335.634 400.586 336.752 402.354 337.987 404.666C339.222 406.977 340.289 408.809 340.358 408.736C340.427 408.663 340.32 407.837 340.12 406.9C339.62 404.554 338.813 397.541 338.822 395.616L338.829 394.033L339.963 395.952C340.587 397.007 341.864 399.48 342.802 401.446C343.739 403.413 344.703 405.022 344.945 405.022C345.498 405.022 351.651 399.785 356.555 395.139C363.424 388.632 367.411 383.163 372.491 373.276C374.019 370.302 375.764 367.005 376.369 365.95C377.799 363.457 380.268 360.02 380.629 360.02C381.281 360.02 386.527 354.35 389.485 350.447C393.421 345.255 396.126 340.98 397.468 337.829C398.985 334.268 401.121 331.314 403.787 329.089C405.092 328 406.226 327.052 406.306 326.983C406.387 326.915 405.35 325.668 404.001 324.213C402.381 322.465 400.95 321.28 399.784 320.722C398.813 320.257 396.875 318.847 395.478 317.589C394.08 316.33 391.471 314.413 389.678 313.328C387.705 312.133 386.226 310.986 385.927 310.419C385.485 309.579 385.512 308.464 386.189 299.604C387.448 283.12 387.936 279.474 389.719 273.198C390.339 271.015 390.849 268.896 390.853 268.488C390.857 268.081 391.147 267.08 391.496 266.265C391.994 265.102 392.307 264.782 392.946 264.782C393.731 264.782 393.758 264.704 393.703 262.614C393.653 260.736 393.729 260.427 394.271 260.311C394.672 260.224 395.285 260.626 395.983 261.433C397.655 263.365 398.725 263.04 398.135 260.778C397.96 260.105 397.932 259.479 398.073 259.387C398.521 259.094 403.104 260.593 405.537 261.828C409.788 263.987 412.705 266.773 415.804 271.637C417.177 273.792 418.876 275.245 420.029 275.251C422.328 275.264 426.774 279.059 430.855 284.492C437.021 292.701 442.236 302.407 446.359 313.347C448.692 319.539 449.986 321.811 452.992 324.995C456.937 329.174 467.227 337.577 470.145 339.001C472.131 339.971 473.362 339.948 476.797 338.881C479.907 337.915 486.811 337.99 492.11 339.047C497.7 340.161 503.473 341.74 506.929 343.098C511.69 344.969 513.138 345.325 519.759 346.245C531.149 347.828 539.035 349.524 541.696 350.962C542.381 351.332 544.667 352.739 546.777 354.089C548.887 355.439 551.232 356.876 551.989 357.281C553.996 358.357 562.317 364.273 565.986 367.232C567.728 368.638 569.306 369.787 569.492 369.786C570.217 369.783 571.949 368.359 575.336 364.983C581.241 359.094 583.058 358.117 588.104 358.113C592.023 358.111 594.814 358.976 598.546 361.352C602.006 363.555 604.412 365.742 607.511 369.5C610.742 373.418 612.053 376.055 614.809 384.17C616.052 387.832 617.374 391.172 617.747 391.593C618.126 392.02 619.21 392.543 620.205 392.779C624.522 393.802 625.738 396.165 627.137 406.243C628.695 417.472 634.16 429.846 637.925 430.669C640.314 431.191 642.132 433.119 645.976 439.21C649.093 444.147 650.175 447.044 652.944 457.873C654.557 464.185 656.062 472.021 656.795 477.932C657.512 483.717 657.277 490.634 656.123 497.643C654.522 507.37 654.639 510.505 656.867 517.522L658.087 521.365L658.291 518.748C658.403 517.309 658.515 513.934 658.539 511.248C658.564 508.562 658.679 504.848 658.795 502.995L659.005 499.625L661.462 500.543C666.364 502.373 668.847 506.889 670.131 516.306C670.712 520.574 670.624 531.568 669.96 537.586C668.188 553.635 666.15 558.386 656.343 569.332C649.217 577.285 648.694 578.231 643.984 591.674C638.775 606.54 634.324 616.515 630.914 620.963C629.81 622.402 628.565 624.373 628.147 625.344C627.729 626.315 626.276 628.435 624.918 630.054C623.56 631.673 621.623 634.36 620.614 636.025C619.604 637.69 618.481 639.221 618.119 639.427C616.939 640.096 615.974 639.859 615.056 638.675L614.177 637.543L612.364 638.196C611.366 638.555 610.323 638.757 610.045 638.644C609.767 638.531 609.164 637.807 608.704 637.035C607.551 635.1 606.586 634.53 603.95 634.223C602.702 634.078 601.517 633.852 601.316 633.72C600.653 633.286 600.932 632.524 602.102 631.579C604.143 629.93 603.342 628.648 600.668 629.285C598.439 629.815 598.314 629.254 599.705 624.952C600.353 622.949 600.764 621.311 600.62 621.311C600.475 621.311 599.631 622.153 598.743 623.182C597.096 625.091 596.343 626.917 596.334 629.027C596.327 630.541 595.631 633.552 594.761 635.828C593.766 638.431 593.005 642.604 592.764 646.777L592.552 650.44L589.753 646.677C585.816 641.385 584.998 639.601 585.044 636.399C585.064 635.008 584.95 633.87 584.79 633.87C584.631 633.87 584.257 634.37 583.958 634.982C583.057 636.828 583.497 639.455 585.566 644.573C586.56 647.033 587.554 649.685 587.775 650.468C587.996 651.25 589.045 653.044 590.106 654.455C591.542 656.364 592.101 657.427 592.294 658.614C592.571 660.327 592.612 671.763 592.449 701.896C592.375 715.541 592.453 721.303 592.727 722.304C593.546 725.308 593.516 725.871 592.474 726.975C591.404 728.109 589.109 728.925 587.897 728.602C586.907 728.339 586.889 727.423 587.777 722.304C588.139 720.215 588.43 717.32 588.422 715.87C588.41 713.309 588.395 713.261 587.908 714.214C587.632 714.753 587.215 716.757 586.981 718.668C586.748 720.579 586.448 722.258 586.315 722.398C585.916 722.82 584.532 720.824 584.13 719.246C583.559 717.006 583.181 713.844 583.173 711.258C583.165 708.382 582.367 703.822 581.676 702.705C581.244 702.006 580.981 701.906 580.06 702.089C579.456 702.209 578.886 702.175 578.795 702.014C578.703 701.853 578.79 700.897 578.987 699.889C579.253 698.526 579.248 697.954 578.964 697.654C578.378 697.033 577.685 697.84 577.446 699.422C577.178 701.197 576.344 701.557 575.346 700.328C574.938 699.826 574.604 699.188 574.604 698.911C574.604 697.842 573.953 698.478 573.602 699.89C571.521 708.245 567.849 715.428 563.116 720.405C558.937 724.799 557.15 725.847 557.15 723.905C557.15 722.622 556.545 722.812 554.353 724.782L552.166 726.748L552.343 725.572C552.44 724.925 552.688 722.693 552.894 720.612C553.101 718.53 553.618 715.632 554.043 714.172C554.468 712.711 554.746 711.442 554.66 711.35C554.335 711.007 550.579 715.493 549.763 717.197C548.924 718.951 547.63 720.036 546.375 720.036C546.046 720.036 544.596 720.664 543.154 721.431C541.712 722.198 540.344 722.826 540.114 722.826C539.344 722.826 539.673 720.482 541.154 715.422C543.823 706.306 546.007 698.271 546.773 694.744C547.189 692.825 547.829 690.065 548.193 688.611C548.962 685.541 550.106 676.874 549.786 676.535C549.381 676.106 548.624 677.638 546.994 682.185C544.422 689.356 536.097 717.096 534.359 724.281C533.814 726.535 533.449 727.421 533.006 727.57C530.82 728.305 521.869 728.47 474.788 728.643L422.888 728.834L422.483 726.615L422.485 726.615ZM638.819 665.322C638.819 665.11 639.19 664.048 639.642 662.964C640.652 660.544 640.706 659.146 639.807 658.636C639.445 658.431 639.148 658.067 639.148 657.827C639.148 656.983 637.201 656.101 635.846 656.33C634.229 656.604 632.891 656.08 632.891 655.173C632.891 654.793 634.701 651.924 636.914 648.798C644.677 637.825 649.41 628.818 653.183 617.84C654.846 612.999 655.989 608.646 658.394 597.978C660.925 586.754 662.803 579.661 665.307 571.862C667.206 565.95 668.209 563.557 669.857 561.011L670.839 559.494L672.444 561.168C674.067 562.862 674.711 564.251 674.607 565.842C674.556 566.629 674.685 566.724 675.948 566.821C678.123 566.988 678.142 567.094 677.893 577.694C677.35 600.888 674.872 617.373 669.711 632.125C667.855 637.427 662.519 648.66 660.564 651.377C657.221 656.024 649.645 661.956 643.997 664.35C641.483 665.416 638.819 665.916 638.819 665.323L638.819 665.322ZM235.915 650.644C235.542 650.005 236.171 649.198 237.974 648.003C240.027 646.643 244.591 644.531 244.861 644.817C245.444 645.435 243.816 646.935 239.612 649.653C237.642 650.927 236.291 651.289 235.915 650.644ZM337.041 588.348L335.079 586.086L333.656 587.476C332.403 588.699 332.041 588.865 330.631 588.865C328.534 588.865 325.849 587.445 322.789 584.716C320.381 582.569 317.621 579.214 317.887 578.758C317.97 578.616 318.802 578.403 319.736 578.286C323.878 577.767 324.833 574.957 323.171 568.18C322.723 566.355 322.116 564.179 321.822 563.346C320.527 559.673 320.98 558.857 323.457 560.395C325.909 561.917 329.254 566.958 329.254 569.131C329.254 570.33 329.857 570.59 330.662 569.737C331.281 569.082 331.314 568.839 331.007 567.166C330.821 566.149 330.32 563.965 329.893 562.312C329.172 559.513 329.156 559.267 329.664 558.728C330.173 558.19 330.238 558.205 330.609 558.943C331.365 560.445 333.388 561.708 335.485 561.986C336.285 562.091 336.994 562.351 337.06 562.562C337.126 562.773 336.577 563.715 335.841 564.655C334.173 566.784 334.173 567.849 335.84 568.683C336.474 569 337.676 569.356 338.511 569.474C340.078 569.697 340.954 570.394 341.16 571.586C341.266 572.198 341.423 572.133 342.634 570.975C344.313 569.368 345.195 569.312 345.906 570.769C346.525 572.038 346.409 573.959 345.571 576.301C345.263 577.161 344.661 579.673 344.233 581.883C342.923 588.652 341.972 590.61 339.999 590.61C339.194 590.61 338.625 590.174 337.041 588.348ZM321.432 575.726C320.868 575.485 320.896 573.515 321.464 573.515C322.136 573.515 323.102 574.814 322.882 575.421C322.688 575.957 322.208 576.058 321.432 575.726ZM179.418 566.43C179.415 565.399 179.54 564.836 179.742 564.968C180.161 565.242 180.161 566.898 179.742 567.585C179.512 567.963 179.422 567.642 179.418 566.43ZM341.268 566.71C340.544 566.236 339.692 565.749 339.375 565.629C338.905 565.451 338.798 564.985 338.798 563.122V560.835L339.704 561.681C340.202 562.146 340.923 562.911 341.306 563.381C341.689 563.851 342.504 564.413 343.117 564.631C344.327 565.061 344.755 566.183 344.052 567.081C343.492 567.795 342.78 567.701 341.268 566.71ZM333.679 556.262C332.695 555.22 332.598 553.979 333.5 553.979C334.194 553.979 335.835 555.837 335.835 556.622C335.835 557.411 334.563 557.199 333.679 556.262ZM329.751 549.741C326.982 546.254 324.04 536.761 323.499 529.56C323.354 527.632 323.009 525.971 322.513 524.811C321.783 523.1 321.378 522.668 318.053 520.052C316.556 518.874 316.074 517.91 316.668 517.281C317.138 516.782 318.177 517.45 320.856 519.974C322.127 521.172 323.461 522.209 323.82 522.28C324.728 522.458 326.74 526.649 327.573 530.096C327.942 531.623 328.691 535.464 329.238 538.63C329.784 541.796 330.529 545.484 330.892 546.827C331.994 550.893 331.556 552.012 329.751 549.741ZM346.254 531.642C345.737 531.478 345.036 531.078 344.697 530.753C343.734 529.83 342.217 525.024 342.888 525.024C342.965 525.024 344.302 525.73 345.86 526.594C347.419 527.457 349.038 528.164 349.46 528.164C350.95 528.164 355.159 530.985 354.74 531.703C354.517 532.086 347.494 532.036 346.254 531.642ZM331.58 507.319C330.654 503.61 330.2 496.766 330.881 496.766C331.559 496.766 332.541 502.158 332.541 505.884C332.541 508.822 332.115 509.458 331.58 507.319ZM328.278 481.615C327.696 480.873 328.28 479.054 329.95 476.409C331.175 474.467 331.46 474.201 331.99 474.502C332.629 474.864 332.628 474.921 331.958 478.103C331.259 481.419 329.466 483.131 328.278 481.615ZM272.852 453.485C272.172 453.105 271.617 452.687 271.617 452.554C271.617 452.422 271.991 451.994 272.449 451.603C273.531 450.68 273.817 448.267 273.26 444.76C272.956 442.848 272.359 441.168 270.977 438.334C269.01 434.298 268.068 431.686 268.438 431.293C269 430.698 272.519 435.252 274.683 439.375C276.503 442.842 277.564 446.279 277.755 449.323C277.895 451.551 277.818 452.108 277.242 453.073C276.671 454.031 276.374 454.204 275.326 454.191C274.644 454.183 273.531 453.865 272.852 453.485ZM336.601 452.89C336.389 452.747 335.657 451.535 334.974 450.195C334.291 448.856 332.513 445.777 331.021 443.352C329.53 440.928 327.872 438.022 327.337 436.895C326.419 434.959 325.714 432.578 326.059 432.578C326.146 432.578 327.069 434.03 328.11 435.805C329.151 437.579 330.896 440.275 331.987 441.794C334.151 444.806 338.139 451.847 338.139 452.655C338.139 453.189 337.247 453.326 336.601 452.89ZM261.719 450.428C260.914 449.885 259.693 448.777 259.005 447.968C256.671 445.218 256.567 443.686 258.506 440.628L259.885 438.452L259.314 436.184C258.434 432.684 257.223 426.136 256.647 421.761C256.051 417.239 256.292 416.325 257.62 418.074C259.111 420.037 260.522 423.724 261.635 428.566C262.253 431.252 263.056 434.305 263.42 435.35C264.201 437.595 266.111 440.475 267.021 440.781C267.715 441.014 267.832 441.693 267.685 444.613C267.536 447.554 266.328 449.811 264.305 450.926C263.192 451.539 263.435 451.586 261.719 450.428ZM288.412 398.998C287.959 398.748 287.393 398.113 287.154 397.585C286.488 396.113 287.144 394.603 289.579 392.012C292.341 389.071 292.35 388.625 289.647 388.567C287.905 388.53 285.826 389.596 280.159 393.431C274.955 396.954 272.911 398.041 271.498 398.041C270.223 398.041 269.829 397.434 270.283 396.169C270.58 395.342 271.316 394.64 273.793 392.822C274.969 391.959 275.168 391.62 275.315 390.239C275.438 389.089 275.997 387.81 277.338 385.618C279.221 382.539 279.679 380.748 278.779 379.988C278.553 379.797 277.629 379.527 276.727 379.388C274.369 379.026 271.831 377.935 265.853 374.714L260.584 371.875L266.183 372.055C269.262 372.153 273.93 372.304 276.556 372.39L281.331 372.546L277.709 371.732C271.299 370.29 268.666 368.808 267.936 366.229C267.64 365.182 267.281 364.686 266.629 364.426C265.853 364.115 265.757 363.925 265.926 363.032L266.121 361.997L263.517 362.215C262.085 362.334 259.061 362.841 256.797 363.341C253.645 364.037 252.181 364.199 250.547 364.034C248.173 363.793 247.521 363.346 246.524 361.277C245.765 359.702 246.018 359.342 247.905 359.309C249.954 359.272 251.896 358.722 252.959 357.876C253.912 357.119 254.242 357.063 256.962 357.196C262.755 357.48 263.154 357.449 264.243 356.625C266.059 355.253 273.6 354.46 286.765 354.257C296.479 354.107 299.448 353.808 302.558 352.668C304.707 351.88 305.207 351.972 305.207 353.155C305.207 354.218 303.016 358.069 301.42 359.814C298.935 362.529 298.516 362.629 289.564 362.659C279.96 362.691 279.19 362.725 279.19 363.113C279.19 363.437 280.447 364.019 281.825 364.333C282.278 364.437 282.944 364.76 283.307 365.053C284.472 365.994 283.328 366.335 279.383 366.223C276.816 366.15 275.751 366.24 275.657 366.538C275.315 367.619 281.404 368.311 292.397 368.441L300.499 368.536L304.004 365.179C310.613 358.848 313.576 356.876 316.483 356.876C319.093 356.876 319.696 357.469 319.696 360.036C319.696 361.176 319.829 362.109 319.992 362.109C320.155 362.109 321.077 361.481 322.042 360.714C324.132 359.05 325.624 358.823 325.624 360.168C325.624 360.787 324.977 361.619 323.253 363.221C316.963 369.065 315.198 371.349 312.896 376.627C311.788 379.167 311.143 381.645 311.588 381.645C311.704 381.645 312.906 380.558 314.259 379.229C317.097 376.442 317.747 376.122 318.924 376.939C319.628 377.427 319.733 377.702 319.562 378.608C319.086 381.126 314.675 384.382 307.711 387.357C303.669 389.084 300.31 391.396 296.96 394.759C293.032 398.702 290.318 400.048 288.411 398.997L288.412 398.998ZM334.423 397.588C334.297 397.243 334.286 395.359 334.397 393.402C334.736 387.438 333.514 381.994 331.836 381.994C331.069 381.994 331.066 381.943 332.049 385.831C332.827 388.907 332.885 393.29 332.158 394.06C331.656 394.592 331.582 394.573 331.128 393.808C330.859 393.354 330.555 391.727 330.453 390.192C330.35 388.657 330.044 385.68 329.771 383.577C329.499 381.474 329.318 379.709 329.368 379.656C329.419 379.602 330.314 379.793 331.357 380.081C335.675 381.273 341.103 386.992 341.103 390.353C341.103 390.936 340.967 391.413 340.801 391.413C340.635 391.413 339.695 390.472 338.713 389.322C337.731 388.172 336.829 387.335 336.709 387.462C336.59 387.588 336.486 388.725 336.478 389.989C336.462 392.628 334.822 398.69 334.423 397.588ZM332.375 357.019C326.529 354.762 322.418 353.379 320.947 353.172C318.24 352.791 317.758 350.968 320.036 349.72C321.297 349.03 326.691 348.49 330.07 348.717C333.943 348.977 335.348 349.445 336.531 350.872C337.497 352.038 337.542 352.223 337.419 354.527C337.224 358.181 336.418 358.58 332.375 357.019ZM307.43 354.063C306.439 353.444 306.743 352.416 308.141 351.661C310.986 350.123 313.44 350.492 312.258 352.28C311.32 353.699 308.508 354.736 307.43 354.063ZM224.656 345.127C223.844 343.178 223.718 340.02 224.332 336.992C224.624 335.553 225.038 332.122 225.252 329.368C225.61 324.759 225.702 324.318 226.399 323.834C227.344 323.178 229.232 323.49 230.141 324.453C231.35 325.734 230.649 331.39 228.565 337.167C228.081 338.51 227.307 341.087 226.845 342.894C226.384 344.701 225.827 346.243 225.608 346.32C225.39 346.397 224.961 345.86 224.656 345.127ZM282.752 338.403C279.823 337.834 277.344 336.055 272.277 330.887C269.643 328.201 265.995 324.642 264.169 322.978C257.612 317.001 255.628 313.591 258.285 312.866C258.831 312.717 260.291 311.687 261.528 310.578C266.708 305.933 267.15 305.691 268.346 306.837C268.658 307.136 269.855 307.75 271.006 308.2C272.157 308.65 274.358 309.58 275.898 310.266C277.438 310.952 278.889 311.517 279.124 311.52C279.365 311.523 279.041 310.819 278.383 309.906C277.042 308.046 276.916 307.34 277.925 307.34C278.98 307.34 282.649 309.63 283.026 310.525C283.228 311.003 283.852 311.45 284.648 311.687C285.886 312.055 285.943 312.135 285.963 313.539C285.978 314.633 286.282 315.461 287.154 316.786C288.338 318.587 291.544 321.643 292.249 321.643C293.193 321.643 297.225 315.499 298.325 312.383C298.902 310.751 299.258 310.327 301.19 308.971C303.728 307.189 304.687 306.182 305.195 304.762C305.661 303.459 305.494 303.327 304.244 304.012C303.3 304.529 303.203 304.528 303.013 304.002C302.666 303.046 303.204 295.525 303.711 294.24C304.297 292.756 304.878 292.723 306.085 294.106C307.286 295.482 308.537 296.176 309.816 296.176C310.959 296.176 312.45 297.498 312.456 298.515C312.463 299.936 314.068 302.705 315.93 304.507L317.866 306.382L315.613 311.05C313.001 316.46 311.154 319.341 309.832 320.065C309.055 320.49 308.834 320.499 308.532 320.113C308.042 319.487 308.634 317.769 310.952 313.088C313.52 307.899 313.398 306.621 310.621 309.648C308.783 311.651 306.66 315.459 305.589 318.673C304.889 320.775 304.782 321.669 304.828 325.025C304.869 327.97 304.773 329 304.44 329.212C304.197 329.366 303.502 330.485 302.897 331.699C301.081 335.338 299.109 336.681 293.846 337.862C290.987 338.503 284.817 338.804 282.752 338.403ZM270.108 292.487C269.987 291.8 269.953 289.07 270.032 286.419C270.146 282.651 270.3 281.4 270.74 280.69C271.419 279.592 271.912 279.552 273.051 280.501C274.853 282.002 275.342 286.586 274.052 289.868C273.506 291.255 271.384 293.734 270.741 293.734C270.515 293.734 270.23 293.173 270.108 292.487ZM304.395 285.86C304.091 283.279 303.523 281.931 301.793 279.68C299.674 276.924 299.394 276.274 300.094 275.732C301.964 274.284 305.537 280.136 305.537 284.649C305.537 288.212 304.769 289.027 304.395 285.86ZM417.199 266.431C416.76 266.194 416.348 265.83 416.284 265.622C416.12 265.095 417.633 263.559 419.972 261.875C424.607 258.539 426.374 256.144 434.304 242.453C441.848 229.428 444.042 226.147 444.722 226.867C445.416 227.603 444.473 233.689 442.549 240.883C441.831 243.569 440.998 247.179 440.699 248.904C440.039 252.714 439.05 254.872 436.816 257.382C431.723 263.104 420.564 268.251 417.199 266.431ZM198.666 169.525C188.931 168.858 184.396 168.314 182.822 167.625C182.191 167.349 180.931 165.992 179.535 164.086C178.29 162.386 176.347 159.838 175.216 158.423C173.737 156.573 172.882 155.087 172.169 153.128C170.622 148.879 168.533 140.308 168.533 138.211C168.533 137.541 169.693 135.633 172.482 131.711C178.313 123.512 185.47 111.982 184.729 111.982C184.547 111.982 183.236 112.448 181.817 113.016C177.01 114.941 174.26 115.566 171.349 115.397C169.457 115.287 168.283 115.016 167.251 114.452C165.204 113.334 162.723 110.775 162.491 109.543C162.359 108.844 161.878 108.236 160.983 107.638C160.261 107.155 159.528 106.48 159.355 106.138C159.006 105.447 158.579 102.35 157.836 95.121C157.564 92.4664 157.244 90.1301 157.127 89.9289C156.985 89.6857 155.702 89.6446 153.292 89.8061L149.671 90.0488L149.896 88.5616C150.019 87.7436 150.548 86.2817 151.071 85.313C153.386 81.0216 153.727 80.154 154.051 77.7356C154.791 72.2098 153.311 61.323 150.906 54.597C150.426 53.2539 149.832 50.9441 149.586 49.464C149.34 47.9839 148.834 45.6907 148.462 44.368C148.09 43.0453 147.786 41.6479 147.786 41.2626C147.786 40.1309 149.992 35.7874 151.39 34.1679C152.244 33.1776 153.189 31.369 154.191 28.8088C155.802 24.6901 157.504 21.2815 157.951 21.2815C158.576 21.2815 159.335 22.7208 160.609 26.319C162.462 31.552 163.496 35.8135 163.917 39.9454C164.338 44.0852 164.53 44.9403 166.257 50.4111C166.984 52.7136 167.737 55.1468 167.931 55.8183C168.125 56.4898 168.643 57.5495 169.084 58.1732C170.156 59.6922 170.838 61.492 170.838 62.8015C170.838 64.275 171.602 65.715 172.653 66.2223C173.135 66.455 174.591 66.8175 175.889 67.0279C180.183 67.7242 181.706 68.0744 181.706 68.3654C181.706 69.0544 178.019 71.0526 173.541 72.79C167.991 74.944 162.4 77.7333 161.484 78.8064C160.574 79.871 161.197 79.7387 165.177 78.022C167.113 77.1869 169.142 76.3929 169.686 76.2576C171.554 75.7923 174.97 74.2372 182.035 70.6355C185.929 68.6504 190.672 66.4555 192.574 65.758C198.073 63.7411 211.396 60.4943 221.883 58.6151C224.147 58.2095 228.188 57.3358 230.863 56.6735C236.276 55.3334 237.57 55.2441 240.601 56.0009C244.23 56.9072 246.863 59.0208 247.524 61.5591C248.19 64.1125 245.064 77.0411 242.785 81.1603C242.322 81.9961 242.091 82.6799 242.271 82.6799C242.451 82.6799 242.312 83.3471 241.963 84.1625C241.597 85.0155 241.324 86.4281 241.32 87.4888C241.312 89.7208 240.724 90.7755 238.835 91.9482C235.93 93.7516 223.84 97.9389 211.703 101.345C205.672 103.038 203.974 103.732 204.189 104.416C204.261 104.644 205.074 104.946 205.997 105.086C211.284 105.892 225.979 114.46 231.105 119.726C232.283 120.936 233.938 122.345 234.782 122.858C236.199 123.72 236.345 123.939 236.698 125.739C237.18 128.2 236.648 131.311 233.443 144.789C230.202 158.417 228.524 163.659 226.966 165.029C226.627 165.327 225.255 165.617 223.564 165.749C222.006 165.87 219.916 166.288 218.919 166.677C213.554 168.773 210.365 169.839 209.04 169.979C208.225 170.065 203.557 169.862 198.666 169.527L198.666 169.525ZM236.8 168.123C235.366 167.666 234.727 166.576 234.727 164.588C234.727 160.764 236.298 158.499 245.815 148.601C253.036 141.091 257.285 137.375 259.342 136.769C261.986 135.991 265.504 136.497 271.419 138.504C280.487 141.581 293.699 148.855 296.78 152.468C298.545 154.538 298.324 156.975 296.253 158.261C293.215 160.146 287.566 161.86 284.342 161.874C280.904 161.889 273.379 164.647 271.582 166.549C270.471 167.726 269.083 167.726 260.531 166.552C256.024 165.934 253.326 165.723 251.851 165.876C248.86 166.184 244.375 167.006 242.444 167.6C240.114 168.317 238.017 168.511 236.8 168.123ZM306.071 155.928C304.564 155.449 303.939 154.596 303.557 152.497C302.77 148.166 302.473 147.232 300.602 143.204C297.828 137.234 293.492 130.101 288.407 123.145C286.412 120.415 285.295 117.116 285.606 114.866C285.874 112.929 287.641 109.269 289.779 106.226C290.722 104.883 294.652 100.475 298.512 96.4318C302.372 92.3882 305.53 88.9024 305.53 88.6857C305.53 88.4689 304.984 88.1829 304.317 88.0503C303.137 87.8158 289.169 88.0524 278.856 88.4817L273.751 88.6941L270.787 85.1381C266.22 79.6584 257.519 65.6896 255.828 61.1233C254.043 56.3027 255.466 54.8455 264.201 52.5508C275.096 49.689 278.723 49.28 297.571 48.7879C315.494 48.3199 319.284 48.4834 326.608 50.04C334.024 51.6165 337.503 52.9552 342.376 56.1089C345.141 57.8985 346.79 58.496 348.021 58.1549C349.704 57.6888 355.424 59.7534 356.596 61.2499C357.572 62.4953 356.848 67.4317 355.142 71.1654L354.106 73.433V81.4566C354.106 87.522 354.256 90.5303 354.721 93.7827C355.138 96.7001 355.228 98.1992 355.001 98.4399C354.313 99.168 352.123 96.1672 350.058 91.6676C348.925 89.1989 347.677 86.9836 347.192 86.5793C346.174 85.7308 343.143 85.2467 341.663 85.6962C340.953 85.9118 340.573 86.2808 340.45 86.8733C340.317 87.5133 339.699 88.0403 338.06 88.9133C335.76 90.1378 334.053 90.4036 331.851 89.8799C330.839 89.6393 330.524 89.7312 329.628 90.5304C328.357 91.6632 328.272 92.4457 329.42 92.4457C331.162 92.4457 333.127 94.032 338.659 99.9023C344.573 106.179 347.782 110.181 348.939 112.725C349.892 114.82 350.744 119.835 350.858 124.017C350.91 125.936 351.13 128.33 351.346 129.337C351.657 130.782 351.652 131.587 351.32 133.159C349.651 141.059 343.872 147.898 338.855 147.91C337.901 147.912 336.01 148.53 333.092 149.791C328.419 151.811 326.164 152.449 323.686 152.449C322.5 152.449 321.386 152.824 319.151 153.976C317.522 154.816 315.414 155.679 314.466 155.895C312.478 156.346 307.453 156.366 306.071 155.928ZM352.995 142.417C352.245 140.931 355.028 136.03 359.328 131.267C361.313 129.067 362.311 128.243 363.609 127.731C365.118 127.137 365.357 126.899 365.805 125.541C366.503 123.428 367.573 123.251 368.308 125.126C368.595 125.86 369.603 127.48 370.549 128.727C373.045 132.02 373.436 132.755 373.436 134.154C373.436 137.111 369.906 139.107 359.871 141.826C354.817 143.196 353.448 143.313 352.995 142.417ZM377.75 133.381C377.46 132.58 378.469 131.737 383.644 128.459C392.034 123.145 402.501 117.408 404.49 117.033C405.578 116.828 406.507 117.279 406.173 117.851C406.056 118.051 405.157 118.463 404.175 118.765C403.113 119.092 400.947 120.351 398.829 121.872C392.67 126.295 379.763 133.96 378.471 133.96C378.19 133.96 377.865 133.699 377.75 133.381ZM145.744 35.6787C144.609 34.3007 143.083 29.9103 142.516 26.3914C142.178 24.2964 140.396 19.05 137.876 12.7332C137.187 11.0064 136.53 8.98127 136.416 8.23285C136.285 7.36826 135.865 6.54153 135.266 5.96527C134.747 5.46651 133.815 4.56526 133.195 3.96243C131.91 2.71397 131.495 1.25815 132.207 0.503579C132.469 0.226609 132.82 0 132.988 0C133.395 0 134.611 1.30367 134.611 1.73959C134.611 2.36131 137.031 3.17845 139.88 3.51892C143.71 3.97644 144.665 4.36104 145.492 5.77827C145.876 6.43761 146.422 6.97708 146.704 6.97708C147.211 6.97708 150.021 9.27816 153.218 12.3112L154.865 13.8735L154.798 16.6671C154.699 20.7612 153.906 23.9993 152.671 25.3491C152.115 25.9576 150.602 28.6188 149.31 31.2629C148.018 33.907 146.802 36.1215 146.607 36.184C146.413 36.2465 146.025 36.0191 145.744 35.6787Z" fill="#F49B31"/>
</svg>
