<svg width="60" height="60" viewBox="0 0 60 60" fill="none" xmlns="http://www.w3.org/2000/svg">
<path fill-rule="evenodd" clip-rule="evenodd" d="M11.5345 21.362L10.4688 25.625H5C3.96448 25.625 3.125 26.4645 3.125 27.5C3.125 28.5355 3.96448 29.375 5 29.375H55C56.0355 29.375 56.875 28.5355 56.875 27.5C56.875 26.4645 56.0355 25.625 55 25.625H49.5312L48.4655 21.362C47.1012 15.9053 46.4193 13.1769 44.3848 11.5884C42.3503 10 39.538 10 33.9132 10H26.0868C20.462 10 17.6497 10 15.6152 11.5884C13.5808 13.1769 12.8987 15.9053 11.5345 21.362ZM16.25 52.5C20.3079 52.5 23.7206 49.7377 24.7104 45.9907L27.4845 44.6037C29.068 43.812 30.932 43.812 32.5155 44.6037L35.2895 45.9907C36.2793 49.7377 39.692 52.5 43.75 52.5C48.5825 52.5 52.5 48.5825 52.5 43.75C52.5 38.9175 48.5825 35 43.75 35C39.5998 35 36.1245 37.8895 35.2257 41.7662L34.1928 41.2498C31.5533 39.93 28.4467 39.93 25.8072 41.2498L24.7742 41.7662C23.8756 37.8895 20.4002 35 16.25 35C11.4175 35 7.5 38.9175 7.5 43.75C7.5 48.5825 11.4175 52.5 16.25 52.5Z" fill="#F49B31"/>
</svg>
