<svg width="24" height="24" viewBox="0 0 24 24" fill="none" xmlns="http://www.w3.org/2000/svg">
<path d="M21.375 1.64965C21.15 1.49965 20.85 1.49965 20.625 1.57465L17.1 3.22465C13.8 4.79965 10.125 5.62465 6.525 5.62465C3.75 5.62465 1.5 7.79965 1.5 10.4997C1.5 11.9997 2.175 13.2747 3.3 14.1747V14.2497L7.2 22.0497C7.35 22.2747 7.575 22.4997 7.875 22.4997H12C12.45 22.4997 12.75 22.1997 12.75 21.7497V16.1997C14.25 16.5747 15.75 17.0997 17.175 17.7747L20.7 19.4247C20.775 19.4997 20.925 19.4997 21 19.4997C21.15 19.4997 21.3 19.4247 21.375 19.3497C21.6 19.1997 21.75 18.9747 21.75 18.7497V2.24965C21.75 2.02465 21.6 1.72465 21.375 1.64965ZM20.25 17.5497L17.85 16.4247C16.2 15.6747 14.55 15.0747 12.75 14.6247V6.44965C12.75 6.44965 12.75 6.44965 12.75 6.37465C14.475 5.92465 16.2 5.32465 17.85 4.57465L20.25 3.44965V17.5497Z" fill="#FEF5EA"/>
</svg>
