<svg width="26" height="27" viewBox="0 0 26 27" fill="none" xmlns="http://www.w3.org/2000/svg">
<path d="M12.5109 6.94635C12.7489 6.94635 12.9418 6.75345 12.9418 6.5155V0.430851C12.9418 0.192906 12.7489 0 12.5109 0C12.2729 0 12.0801 0.192906 12.0801 0.430851V6.5155C12.0801 6.7535 12.2729 6.94635 12.5109 6.94635Z" fill="#F49B31"/>
<path d="M14.2365 6.94635C14.4745 6.94635 14.6674 6.75345 14.6674 6.5155V0.430851C14.6674 0.192906 14.4745 0 14.2365 0C13.9985 0 13.8057 0.192906 13.8057 0.430851V6.5155C13.8057 6.7535 13.9985 6.94635 14.2365 6.94635Z" fill="#F49B31"/>
<path d="M11.2162 7.91935V1.6828C11.2162 1.44486 11.0233 1.25195 10.7853 1.25195C10.5473 1.25195 10.3545 1.44486 10.3545 1.6828V8.31808C10.3545 8.55603 10.5473 8.74893 10.7853 8.74893C11.9007 8.74893 12.8082 9.65648 12.8082 10.772C12.8082 11.0099 13.0011 11.2028 13.2391 11.2028C13.4771 11.2028 13.6699 11.0099 13.6699 10.772C13.6699 9.32771 12.6031 8.12793 11.2162 7.91935Z" fill="#F49B31"/>
<path d="M15.9621 1.87695C15.7241 1.87695 15.5313 2.06986 15.5313 2.3078V9.526C15.5313 10.601 14.9525 11.6037 14.0208 12.1426C13.8149 12.2618 13.7445 12.5254 13.8637 12.7314C13.9436 12.8694 14.0882 12.9466 14.237 12.9466C14.3102 12.9466 14.3844 12.9278 14.4524 12.8886C14.4869 12.8686 14.521 12.848 14.5547 12.8271V26.5686C14.5547 26.8066 14.7475 26.9995 14.9855 26.9995C15.2235 26.9995 15.4164 26.8066 15.4164 26.5686V12.0984C16.035 11.3975 16.393 10.4843 16.393 9.526V2.3078C16.393 2.06986 16.2001 1.87695 15.9621 1.87695Z" fill="#F49B31"/>
<path d="M11.0011 12.1434C10.0694 11.6044 9.49061 10.6018 9.49061 9.52671V4.82734C9.49061 4.58939 9.29776 4.39648 9.05976 4.39648C8.82176 4.39648 8.62891 4.58939 8.62891 4.82734V9.52671C8.62891 10.8236 9.28409 12.0383 10.3544 12.7552V26.5693C10.3544 26.8073 10.5473 27.0002 10.7853 27.0002C11.0233 27.0002 11.2161 26.8073 11.2161 26.5693V12.5164C11.2161 12.3625 11.1342 12.2204 11.0011 12.1434Z" fill="#F49B31"/>
<path d="M3.88202 13.9854C4.12003 13.9854 4.31287 13.7925 4.31287 13.5546V7.46991C4.31287 7.23197 4.12003 7.03906 3.88202 7.03906C3.64402 7.03906 3.45117 7.23197 3.45117 7.46991V13.5546C3.45117 13.7925 3.64402 13.9854 3.88202 13.9854Z" fill="#F49B31"/>
<path d="M5.60761 13.9854C5.84561 13.9854 6.03846 13.7925 6.03846 13.5546V7.46991C6.03846 7.23197 5.84561 7.03906 5.60761 7.03906C5.36961 7.03906 5.17676 7.23197 5.17676 7.46991V13.5546C5.17676 13.7925 5.36961 13.9854 5.60761 13.9854Z" fill="#F49B31"/>
<path d="M2.58729 14.9583V8.72187C2.58729 8.48392 2.39444 8.29102 2.15644 8.29102C1.91843 8.29102 1.72559 8.48392 1.72559 8.72187V15.3571C1.72559 15.595 1.91843 15.7879 2.15644 15.7879C3.27182 15.7879 4.17931 16.6955 4.17931 17.811C4.17931 18.0489 4.37216 18.2418 4.61016 18.2418C4.84816 18.2418 5.04101 18.0489 5.04101 17.811C5.04101 16.3668 3.97417 15.167 2.58729 14.9583Z" fill="#F49B31"/>
<path d="M7.33323 8.91602C7.09523 8.91602 6.90238 9.10892 6.90238 9.34687V16.5651C6.90238 17.6401 6.32361 18.6427 5.39193 19.1817C5.18599 19.3008 5.11556 19.5644 5.23476 19.7704C5.31467 19.9085 5.45932 19.9856 5.60811 19.9856C5.68129 19.9856 5.75552 19.9669 5.82347 19.9276C5.858 19.9076 5.89207 19.887 5.92579 19.8661V26.5685C5.92579 26.8064 6.11864 26.9994 6.35664 26.9994C6.59464 26.9994 6.78749 26.8064 6.78749 26.5685V19.1374C7.40613 18.4366 7.76409 17.5233 7.76409 16.5651V9.34687C7.76409 9.10892 7.57118 8.91602 7.33323 8.91602Z" fill="#F49B31"/>
<path d="M2.37215 19.1824C1.44048 18.6434 0.861702 17.6408 0.861702 16.5658V11.8664C0.861702 11.6285 0.668853 11.4355 0.430851 11.4355C0.192849 11.4355 0 11.6285 0 11.8664V16.5658C0 17.8626 0.655181 19.0774 1.72553 19.7942V26.5692C1.72553 26.8071 1.91838 27 2.15638 27C2.39438 27 2.58723 26.8071 2.58723 26.5692V19.5553C2.58723 19.4015 2.50526 19.2594 2.37215 19.1824Z" fill="#F49B31"/>
<path d="M21.1398 10.5381C21.3778 10.5381 21.5707 10.3452 21.5707 10.1073V4.02265C21.5707 3.7847 21.3778 3.5918 21.1398 3.5918C20.9018 3.5918 20.709 3.7847 20.709 4.02265V10.1073C20.709 10.3452 20.9019 10.5381 21.1398 10.5381Z" fill="#F49B31"/>
<path d="M19.4133 3.5918C19.1753 3.5918 18.9824 3.7847 18.9824 4.02265V10.1073C18.9824 10.3452 19.1753 10.5381 19.4133 10.5381C19.6513 10.5381 19.8441 10.3452 19.8441 10.1073V4.02265C19.8441 3.7847 19.6513 3.5918 19.4133 3.5918Z" fill="#F49B31"/>
<path d="M23.2959 11.9098V5.2746C23.2959 5.03666 23.103 4.84375 22.865 4.84375C22.627 4.84375 22.4342 5.03666 22.4342 5.2746V11.5111C21.0473 11.7197 19.9805 12.9196 19.9805 14.3638C19.9805 14.6017 20.1733 14.7946 20.4113 14.7946C20.6493 14.7946 20.8422 14.6017 20.8422 14.3638C20.8422 13.2483 21.7497 12.3407 22.865 12.3407C23.103 12.3407 23.2959 12.1478 23.2959 11.9098Z" fill="#F49B31"/>
<path d="M19.629 15.7364C18.6973 15.1974 18.1185 14.1947 18.1185 13.1197V5.90155C18.1185 5.66361 17.9257 5.4707 17.6877 5.4707C17.4497 5.4707 17.2568 5.66361 17.2568 5.90155V13.1197C17.2568 14.078 17.6148 14.9912 18.2334 15.6921V26.5699C18.2334 26.8079 18.4263 27.0008 18.6643 27.0008C18.9023 27.0008 19.0951 26.8079 19.0951 26.5699V16.4207C19.1289 16.4417 19.1629 16.4622 19.1974 16.4822C19.2654 16.5216 19.3396 16.5402 19.4128 16.5402C19.5616 16.5402 19.7063 16.4631 19.7862 16.325C19.9054 16.1191 19.8349 15.8555 19.629 15.7364Z" fill="#F49B31"/>
<path d="M24.591 7.98828C24.3529 7.98828 24.1601 8.18119 24.1601 8.41913V13.1185C24.1601 14.1935 23.5813 15.1962 22.6497 15.7352C22.5165 15.8121 22.4346 15.9543 22.4346 16.1081V26.5688C22.4346 26.8067 22.6274 26.9996 22.8654 26.9996C23.1034 26.9996 23.2963 26.8067 23.2963 26.5688V16.347C24.3666 15.6301 25.0218 14.4153 25.0218 13.1185V8.41913C25.0218 8.18119 24.829 7.98828 24.591 7.98828Z" fill="#F49B31"/>
</svg>
