<svg width="32" height="32" viewBox="0 0 32 32" fill="none" xmlns="http://www.w3.org/2000/svg">
<path d="M25.9619 15.3735C25.9027 15.2038 25.7988 15.046 25.657 14.9103C25.5152 14.7745 25.3388 14.664 25.1392 14.5858L19.7759 12.4854L21.2156 4.62142C21.263 4.34887 21.1952 4.0716 21.0229 3.83257C20.8506 3.59354 20.5833 3.40609 20.2625 3.29927C19.9417 3.19245 19.5853 3.17223 19.2485 3.24174C18.9116 3.31125 18.6132 3.46661 18.3995 3.68374L7.32469 14.9359C7.17707 15.0887 7.07601 15.2663 7.02937 15.4549C6.98272 15.6436 6.99174 15.8382 7.05574 16.0236C7.11858 16.2108 7.23561 16.384 7.3976 16.5293C7.55959 16.6747 7.76211 16.7883 7.98918 16.8613L14.7448 18.9992L13.3051 26.7757C13.2561 27.0548 13.3279 27.3388 13.5089 27.5816C13.6898 27.8244 13.9692 28.0119 14.3018 28.1134C14.4872 28.1742 14.6865 28.204 14.8872 28.201C15.1478 28.1999 15.404 28.148 15.6331 28.0498C15.8622 27.9517 16.057 27.8103 16.2003 27.6384L25.693 16.3862C25.8267 16.2423 25.9199 16.0775 25.9663 15.9029C26.0127 15.7282 26.0112 15.5477 25.9619 15.3735Z" fill="#F49B31"/>
</svg>
