<svg width="18" height="15" viewBox="0 0 18 15" fill="none" xmlns="http://www.w3.org/2000/svg">
<path d="M15.7084 3.53994C15.7191 3.69424 15.7191 3.84854 15.7191 4.00424C15.7191 8.74844 12.1075 14.2198 5.5035 14.2198V14.217C3.5526 14.2198 1.64229 13.661 0 12.6074C0.28367 12.6415 0.56876 12.6586 0.85456 12.6593C2.4713 12.6607 4.0417 12.1183 5.3136 11.1194C3.7773 11.0902 2.43 10.0885 1.95937 8.62614C2.4976 8.72994 3.0521 8.70854 3.5803 8.56424C1.90534 8.22584 0.70028 6.75414 0.70028 5.04504C0.70028 5.02944 0.70028 5.01454 0.70028 4.99954C1.19937 5.27754 1.75818 5.43184 2.3298 5.44884C0.75218 4.39454 0.26589 2.29584 1.21857 0.654939C3.0414 2.89804 5.731 4.26164 8.6181 4.40594C8.3288 3.15894 8.7241 1.85224 9.6568 0.97564C11.1029 -0.38374 13.3772 -0.31406 14.7365 1.13134C15.5406 0.97274 16.3113 0.67774 17.0166 0.25967C16.7485 1.09074 16.1876 1.79674 15.4383 2.24534C16.1499 2.16144 16.8452 1.97094 17.5 1.68014C17.018 2.40244 16.4108 3.03164 15.7084 3.53994Z" fill="#F49B31"/>
</svg>
