<svg width="338" height="338" viewBox="0 0 338 338" fill="none" xmlns="http://www.w3.org/2000/svg">
<path d="M184.574 44.9619C241.157 51.9943 286.004 96.8421 293.037 153.425L338 169L293.037 184.574C286.005 241.157 241.157 286.005 184.574 293.037L169 338L153.425 293.037C96.8421 286.004 51.9943 241.157 44.9619 184.574L0 169L44.9619 153.425C51.9947 96.8424 96.8424 51.9947 153.425 44.9619L169 0L184.574 44.9619Z" fill="#FEF5EA"/>
<path d="M205.97 152.618C200.468 140.749 191.426 133.817 178.524 132.164C174.368 131.632 174.321 131.727 174.285 127.553C174.242 122.764 174.285 117.974 174.255 113.185C174.248 112.039 174.743 111.706 175.837 111.749C183.871 112.061 191.592 113.735 198.774 117.391C205.791 120.963 211.913 125.739 216.84 131.949C225.279 142.584 229.093 154.761 228.778 168.281C228.735 170.105 228.504 171.93 228.267 173.743C227.946 176.191 227.908 176.191 225.499 176.19C217.92 176.189 210.341 176.18 202.762 176.181C193.947 176.182 185.132 176.195 176.316 176.194C174.258 176.194 174.319 176.177 174.317 174.131C174.313 168.755 174.269 163.378 174.198 158.001C174.176 156.339 174.372 156.075 176.319 156.071C184.812 156.053 193.305 156.051 201.797 156.043C202.926 156.042 204.055 156.039 205.183 156.037C207.04 156.032 207.192 155.822 206.567 154.076C206.403 153.621 206.202 153.179 205.97 152.618Z" fill="#F49C32"/>
<path d="M199.434 202.753C203.737 207.039 207.92 211.289 212.15 215.493C213.052 216.389 212.811 216.95 212 217.723C203.604 225.728 193.707 230.618 182.203 232.137C166.046 234.27 151.549 230.233 139.19 219.615C129.283 211.104 123.201 200.208 121.1 187.191C120.697 184.693 120.307 182.208 120.302 179.669C120.299 178.545 120.545 178.001 121.875 178.147C125.088 178.499 128.313 178.078 131.535 178.063C134.057 178.051 136.574 178.406 139.098 178.131C140.129 178.019 140.332 178.692 140.388 179.551C140.577 182.452 140.94 185.306 141.808 188.119C143.681 194.185 146.909 199.342 151.554 203.635C157.015 208.682 163.432 211.669 170.816 212.467C181.193 213.588 190.168 210.439 197.812 203.368C198.24 202.973 198.624 202.462 199.434 202.753Z" fill="#F49C32"/>
<path d="M113.749 134.058C120.199 120.705 130.318 111.794 144.391 107.4C148.589 106.09 152.882 105.613 157.225 105.321C158.394 105.243 159.062 105.606 159.04 106.931C158.994 109.785 158.995 112.64 159.032 115.494C159.048 116.816 158.462 117.231 157.178 117.297C145.707 117.888 136.77 123.268 129.66 132.053C126.232 136.289 123.774 141.043 122.243 146.261C121.532 148.682 121.082 151.188 121.075 153.717C121.072 154.895 120.588 155.309 119.589 155.307C116.581 155.3 113.573 155.233 110.565 155.217C109.363 155.211 109.179 154.491 109.205 153.508C109.353 147.921 110.442 142.519 112.375 137.285C112.765 136.227 113.255 135.207 113.749 134.058Z" fill="#FFC45C"/>
<path d="M151.277 124.36C153.368 123.992 155.32 123.655 157.314 123.56C158.472 123.505 159.045 123.834 159.028 125.054C159.001 126.938 158.998 128.824 159.038 130.707C159.06 131.749 158.586 132.126 157.591 132.178C147.491 132.7 141.11 138.385 137.102 147.207C136.197 149.198 135.693 151.387 135.818 153.63C135.886 154.84 135.364 155.263 134.203 155.227C132.378 155.172 130.55 155.187 128.724 155.206C127.626 155.217 127.079 154.943 127.171 153.621C127.996 141.818 133.369 132.92 143.792 127.192C146.115 125.915 148.569 124.995 151.277 124.36Z" fill="#FFC45C"/>
<path d="M145.16 155.432C142.823 155.388 142.58 155.215 142.878 153.121C143.985 145.325 149.272 139.988 157.24 139.132C158.586 138.987 159.12 139.49 159.036 140.838C158.956 142.122 159.308 143.535 158.882 144.671C158.399 145.957 156.711 145.449 155.599 145.889C152.048 147.295 149.827 149.866 149.191 153.557C148.916 155.152 148.312 155.56 146.922 155.45C146.388 155.408 145.848 155.437 145.16 155.432Z" fill="#FFC45C"/>
</svg>
